<svg width="150" height="150" viewBox="0 0 150 150" fill="none" xmlns="http://www.w3.org/2000/svg">
<g opacity="0.65">
<mask id="mask0_115_3392" style="mask-type:alpha" maskUnits="userSpaceOnUse" x="0" y="0" width="150" height="150">
<rect x="0.5" y="0.5" width="149" height="149" fill="#D9D9D9" stroke="#303032"/>
</mask>
<g mask="url(#mask0_115_3392)">
<g opacity="0.25">
<circle cx="4.13185" cy="7.56969" r="1.10448" transform="rotate(90 4.13185 7.56969)" fill="#303032" stroke="#303032"/>
<circle cx="24.4551" cy="7.56969" r="1.10448" transform="rotate(90 24.4551 7.56969)" fill="#303032" stroke="#303032"/>
<circle cx="44.7783" cy="7.56969" r="1.10448" transform="rotate(90 44.7783 7.56969)" fill="#303032" stroke="#303032"/>
<circle cx="65.1026" cy="7.56969" r="1.10448" transform="rotate(90 65.1026 7.56969)" fill="#303032" stroke="#303032"/>
<circle cx="85.4258" cy="7.56969" r="1.10448" transform="rotate(90 85.4258 7.56969)" fill="#303032" stroke="#303032"/>
<circle cx="105.749" cy="7.56969" r="1.10448" transform="rotate(90 105.749 7.56969)" fill="#303032" stroke="#303032"/>
<circle cx="126.072" cy="7.56969" r="1.10448" transform="rotate(90 126.072 7.56969)" fill="#303032" stroke="#303032"/>
<circle cx="146.396" cy="7.56969" r="1.10448" transform="rotate(90 146.396 7.56969)" fill="#303032" stroke="#303032"/>
<circle cx="4.13185" cy="34.3109" r="1.10448" transform="rotate(90 4.13185 34.3109)" fill="#303032" stroke="#303032"/>
<circle cx="24.4551" cy="34.3109" r="1.10448" transform="rotate(90 24.4551 34.3109)" fill="#303032" stroke="#303032"/>
<circle cx="44.7783" cy="34.3109" r="1.10448" transform="rotate(90 44.7783 34.3109)" fill="#303032" stroke="#303032"/>
<circle cx="65.1026" cy="34.3109" r="1.10448" transform="rotate(90 65.1026 34.3109)" fill="#303032" stroke="#303032"/>
<circle cx="85.4258" cy="34.3109" r="1.10448" transform="rotate(90 85.4258 34.3109)" fill="#303032" stroke="#303032"/>
<circle cx="105.749" cy="34.3109" r="1.10448" transform="rotate(90 105.749 34.3109)" fill="#303032" stroke="#303032"/>
<circle cx="126.072" cy="34.3109" r="1.10448" transform="rotate(90 126.072 34.3109)" fill="#303032" stroke="#303032"/>
<circle cx="146.396" cy="34.3109" r="1.10448" transform="rotate(90 146.396 34.3109)" fill="#303032" stroke="#303032"/>
<circle cx="4.13185" cy="61.0522" r="1.10448" transform="rotate(90 4.13185 61.0522)" fill="#303032" stroke="#303032"/>
<circle cx="24.4551" cy="61.0522" r="1.10448" transform="rotate(90 24.4551 61.0522)" fill="#303032" stroke="#303032"/>
<circle cx="44.7783" cy="61.0522" r="1.10448" transform="rotate(90 44.7783 61.0522)" fill="#303032" stroke="#303032"/>
<circle cx="65.1026" cy="61.0522" r="1.10448" transform="rotate(90 65.1026 61.0522)" fill="#303032" stroke="#303032"/>
<circle cx="85.4258" cy="61.0522" r="1.10448" transform="rotate(90 85.4258 61.0522)" fill="#303032" stroke="#303032"/>
<circle cx="105.749" cy="61.0522" r="1.10448" transform="rotate(90 105.749 61.0522)" fill="#303032" stroke="#303032"/>
<circle cx="126.072" cy="61.0522" r="1.10448" transform="rotate(90 126.072 61.0522)" fill="#303032" stroke="#303032"/>
<circle cx="146.396" cy="61.0522" r="1.10448" transform="rotate(90 146.396 61.0522)" fill="#303032" stroke="#303032"/>
<circle cx="4.13185" cy="87.7936" r="1.10448" transform="rotate(90 4.13185 87.7936)" fill="#303032" stroke="#303032"/>
<circle cx="24.4551" cy="87.7936" r="1.10448" transform="rotate(90 24.4551 87.7936)" fill="#303032" stroke="#303032"/>
<circle cx="44.7783" cy="87.7936" r="1.10448" transform="rotate(90 44.7783 87.7936)" fill="#303032" stroke="#303032"/>
<circle cx="65.1026" cy="87.7936" r="1.10448" transform="rotate(90 65.1026 87.7936)" fill="#303032" stroke="#303032"/>
<circle cx="85.4258" cy="87.7936" r="1.10448" transform="rotate(90 85.4258 87.7936)" fill="#303032" stroke="#303032"/>
<circle cx="105.749" cy="87.7936" r="1.10448" transform="rotate(90 105.749 87.7936)" fill="#303032" stroke="#303032"/>
<circle cx="126.072" cy="87.7936" r="1.10448" transform="rotate(90 126.072 87.7936)" fill="#303032" stroke="#303032"/>
<circle cx="146.396" cy="87.7936" r="1.10448" transform="rotate(90 146.396 87.7936)" fill="#303032" stroke="#303032"/>
<circle cx="4.13185" cy="114.535" r="1.10448" transform="rotate(90 4.13185 114.535)" fill="#303032" stroke="#303032"/>
<circle cx="24.4551" cy="114.535" r="1.10448" transform="rotate(90 24.4551 114.535)" fill="#303032" stroke="#303032"/>
<circle cx="44.7783" cy="114.535" r="1.10448" transform="rotate(90 44.7783 114.535)" fill="#303032" stroke="#303032"/>
<circle cx="65.1026" cy="114.535" r="1.10448" transform="rotate(90 65.1026 114.535)" fill="#303032" stroke="#303032"/>
<circle cx="85.4258" cy="114.535" r="1.10448" transform="rotate(90 85.4258 114.535)" fill="#303032" stroke="#303032"/>
<circle cx="105.749" cy="114.535" r="1.10448" transform="rotate(90 105.749 114.535)" fill="#303032" stroke="#303032"/>
<circle cx="126.072" cy="114.535" r="1.10448" transform="rotate(90 126.072 114.535)" fill="#303032" stroke="#303032"/>
<circle cx="146.396" cy="114.535" r="1.10448" transform="rotate(90 146.396 114.535)" fill="#303032" stroke="#303032"/>
<circle cx="4.13185" cy="141.276" r="1.10448" transform="rotate(90 4.13185 141.276)" fill="#303032" stroke="#303032"/>
<circle cx="24.4551" cy="141.276" r="1.10448" transform="rotate(90 24.4551 141.276)" fill="#303032" stroke="#303032"/>
<circle cx="44.7783" cy="141.276" r="1.10448" transform="rotate(90 44.7783 141.276)" fill="#303032" stroke="#303032"/>
<circle cx="65.1026" cy="141.276" r="1.10448" transform="rotate(90 65.1026 141.276)" fill="#303032" stroke="#303032"/>
<circle cx="85.4258" cy="141.276" r="1.10448" transform="rotate(90 85.4258 141.276)" fill="#303032" stroke="#303032"/>
<circle cx="105.749" cy="141.276" r="1.10448" transform="rotate(90 105.749 141.276)" fill="#303032" stroke="#303032"/>
<circle cx="126.072" cy="141.276" r="1.10448" transform="rotate(90 126.072 141.276)" fill="#303032" stroke="#303032"/>
<circle cx="146.396" cy="141.276" r="1.10448" transform="rotate(90 146.396 141.276)" fill="#303032" stroke="#303032"/>
</g>
</g>
</g>
</svg>
