<svg width="430" height="378" viewBox="0 0 430 378" fill="none" xmlns="http://www.w3.org/2000/svg">
<g opacity="0.15">
<circle cx="184.515" cy="1.60448" r="1.60448" transform="rotate(90 184.515 1.60448)" fill="#303032"/>
<circle cx="204.838" cy="1.60448" r="1.60448" transform="rotate(90 204.838 1.60448)" fill="#303032"/>
<circle cx="225.161" cy="1.60448" r="1.60448" transform="rotate(90 225.161 1.60448)" fill="#303032"/>
<circle cx="245.484" cy="1.60448" r="1.60448" transform="rotate(90 245.484 1.60448)" fill="#303032"/>
<circle cx="265.809" cy="1.60448" r="1.60448" transform="rotate(90 265.809 1.60448)" fill="#303032"/>
<circle cx="286.132" cy="1.60448" r="1.60448" transform="rotate(90 286.132 1.60448)" fill="#303032"/>
<circle cx="306.455" cy="1.60448" r="1.60448" transform="rotate(90 306.455 1.60448)" fill="#303032"/>
<circle cx="326.778" cy="1.60448" r="1.60448" transform="rotate(90 326.778 1.60448)" fill="#303032"/>
<circle cx="347.103" cy="1.60448" r="1.60448" transform="rotate(90 347.103 1.60448)" fill="#303032"/>
<circle cx="367.426" cy="1.60448" r="1.60448" transform="rotate(90 367.426 1.60448)" fill="#303032"/>
<circle cx="387.749" cy="1.60448" r="1.60448" transform="rotate(90 387.749 1.60448)" fill="#303032"/>
<circle cx="408.072" cy="1.60448" r="1.60448" transform="rotate(90 408.072 1.60448)" fill="#303032"/>
<circle cx="428.396" cy="1.60448" r="1.60448" transform="rotate(90 428.396 1.60448)" fill="#303032"/>
<circle cx="164.191" cy="1.60448" r="1.60448" transform="rotate(90 164.191 1.60448)" fill="#303032"/>
<circle cx="143.868" cy="1.60448" r="1.60448" transform="rotate(90 143.868 1.60448)" fill="#303032"/>
<circle cx="123.545" cy="1.60448" r="1.60448" transform="rotate(90 123.545 1.60448)" fill="#303032"/>
<circle cx="103.222" cy="1.60448" r="1.60448" transform="rotate(90 103.222 1.60448)" fill="#303032"/>
<circle cx="82.8975" cy="1.60448" r="1.60448" transform="rotate(90 82.8975 1.60448)" fill="#303032"/>
<circle cx="62.5742" cy="1.60448" r="1.60448" transform="rotate(90 62.5742 1.60448)" fill="#303032"/>
<circle cx="42.251" cy="1.60448" r="1.60448" transform="rotate(90 42.251 1.60448)" fill="#303032"/>
<circle cx="21.9277" cy="1.60448" r="1.60448" transform="rotate(90 21.9277 1.60448)" fill="#303032"/>
<circle cx="1.60451" cy="1.60448" r="1.60448" transform="rotate(90 1.60451 1.60448)" fill="#303032"/>
<circle cx="184.515" cy="28.3458" r="1.60448" transform="rotate(90 184.515 28.3458)" fill="#303032"/>
<circle cx="204.838" cy="28.3458" r="1.60448" transform="rotate(90 204.838 28.3458)" fill="#303032"/>
<circle cx="225.161" cy="28.3458" r="1.60448" transform="rotate(90 225.161 28.3458)" fill="#303032"/>
<circle cx="245.484" cy="28.3458" r="1.60448" transform="rotate(90 245.484 28.3458)" fill="#303032"/>
<circle cx="265.809" cy="28.3458" r="1.60448" transform="rotate(90 265.809 28.3458)" fill="#303032"/>
<circle cx="286.132" cy="28.3458" r="1.60448" transform="rotate(90 286.132 28.3458)" fill="#303032"/>
<circle cx="306.455" cy="28.3458" r="1.60448" transform="rotate(90 306.455 28.3458)" fill="#303032"/>
<circle cx="326.778" cy="28.3458" r="1.60448" transform="rotate(90 326.778 28.3458)" fill="#303032"/>
<circle cx="347.103" cy="28.3458" r="1.60448" transform="rotate(90 347.103 28.3458)" fill="#303032"/>
<circle cx="367.426" cy="28.3458" r="1.60448" transform="rotate(90 367.426 28.3458)" fill="#303032"/>
<circle cx="387.749" cy="28.3458" r="1.60448" transform="rotate(90 387.749 28.3458)" fill="#303032"/>
<circle cx="408.072" cy="28.3458" r="1.60448" transform="rotate(90 408.072 28.3458)" fill="#303032"/>
<circle cx="428.396" cy="28.3458" r="1.60448" transform="rotate(90 428.396 28.3458)" fill="#303032"/>
<circle cx="164.191" cy="28.3458" r="1.60448" transform="rotate(90 164.191 28.3458)" fill="#303032"/>
<circle cx="143.868" cy="28.3458" r="1.60448" transform="rotate(90 143.868 28.3458)" fill="#303032"/>
<circle cx="123.545" cy="28.3458" r="1.60448" transform="rotate(90 123.545 28.3458)" fill="#303032"/>
<circle cx="103.222" cy="28.3458" r="1.60448" transform="rotate(90 103.222 28.3458)" fill="#303032"/>
<circle cx="82.8975" cy="28.3458" r="1.60448" transform="rotate(90 82.8975 28.3458)" fill="#303032"/>
<circle cx="62.5742" cy="28.3458" r="1.60448" transform="rotate(90 62.5742 28.3458)" fill="#303032"/>
<circle cx="42.251" cy="28.3458" r="1.60448" transform="rotate(90 42.251 28.3458)" fill="#303032"/>
<circle cx="21.9277" cy="28.3458" r="1.60448" transform="rotate(90 21.9277 28.3458)" fill="#303032"/>
<circle cx="1.60451" cy="28.3458" r="1.60448" transform="rotate(90 1.60451 28.3458)" fill="#303032"/>
<circle cx="184.515" cy="55.087" r="1.60448" transform="rotate(90 184.515 55.087)" fill="#303032"/>
<circle cx="204.838" cy="55.087" r="1.60448" transform="rotate(90 204.838 55.087)" fill="#303032"/>
<circle cx="225.161" cy="55.087" r="1.60448" transform="rotate(90 225.161 55.087)" fill="#303032"/>
<circle cx="245.484" cy="55.087" r="1.60448" transform="rotate(90 245.484 55.087)" fill="#303032"/>
<circle cx="265.809" cy="55.087" r="1.60448" transform="rotate(90 265.809 55.087)" fill="#303032"/>
<circle cx="286.132" cy="55.087" r="1.60448" transform="rotate(90 286.132 55.087)" fill="#303032"/>
<circle cx="306.455" cy="55.087" r="1.60448" transform="rotate(90 306.455 55.087)" fill="#303032"/>
<circle cx="326.778" cy="55.087" r="1.60448" transform="rotate(90 326.778 55.087)" fill="#303032"/>
<circle cx="347.103" cy="55.087" r="1.60448" transform="rotate(90 347.103 55.087)" fill="#303032"/>
<circle cx="367.426" cy="55.087" r="1.60448" transform="rotate(90 367.426 55.087)" fill="#303032"/>
<circle cx="387.749" cy="55.087" r="1.60448" transform="rotate(90 387.749 55.087)" fill="#303032"/>
<circle cx="408.072" cy="55.087" r="1.60448" transform="rotate(90 408.072 55.087)" fill="#303032"/>
<circle cx="428.396" cy="55.087" r="1.60448" transform="rotate(90 428.396 55.087)" fill="#303032"/>
<circle cx="164.191" cy="55.087" r="1.60448" transform="rotate(90 164.191 55.087)" fill="#303032"/>
<circle cx="143.868" cy="55.087" r="1.60448" transform="rotate(90 143.868 55.087)" fill="#303032"/>
<circle cx="123.545" cy="55.087" r="1.60448" transform="rotate(90 123.545 55.087)" fill="#303032"/>
<circle cx="103.222" cy="55.087" r="1.60448" transform="rotate(90 103.222 55.087)" fill="#303032"/>
<circle cx="82.8975" cy="55.087" r="1.60448" transform="rotate(90 82.8975 55.087)" fill="#303032"/>
<circle cx="62.5742" cy="55.087" r="1.60448" transform="rotate(90 62.5742 55.087)" fill="#303032"/>
<circle cx="42.251" cy="55.087" r="1.60448" transform="rotate(90 42.251 55.087)" fill="#303032"/>
<circle cx="21.9277" cy="55.087" r="1.60448" transform="rotate(90 21.9277 55.087)" fill="#303032"/>
<circle cx="1.60451" cy="55.087" r="1.60448" transform="rotate(90 1.60451 55.087)" fill="#303032"/>
<circle cx="184.515" cy="81.8284" r="1.60448" transform="rotate(90 184.515 81.8284)" fill="#303032"/>
<circle cx="204.838" cy="81.8284" r="1.60448" transform="rotate(90 204.838 81.8284)" fill="#303032"/>
<circle cx="225.161" cy="81.8284" r="1.60448" transform="rotate(90 225.161 81.8284)" fill="#303032"/>
<circle cx="245.484" cy="81.8284" r="1.60448" transform="rotate(90 245.484 81.8284)" fill="#303032"/>
<circle cx="265.809" cy="81.8284" r="1.60448" transform="rotate(90 265.809 81.8284)" fill="#303032"/>
<circle cx="286.132" cy="81.8284" r="1.60448" transform="rotate(90 286.132 81.8284)" fill="#303032"/>
<circle cx="306.455" cy="81.8284" r="1.60448" transform="rotate(90 306.455 81.8284)" fill="#303032"/>
<circle cx="326.778" cy="81.8284" r="1.60448" transform="rotate(90 326.778 81.8284)" fill="#303032"/>
<circle cx="347.103" cy="81.8284" r="1.60448" transform="rotate(90 347.103 81.8284)" fill="#303032"/>
<circle cx="367.426" cy="81.8284" r="1.60448" transform="rotate(90 367.426 81.8284)" fill="#303032"/>
<circle cx="387.749" cy="81.8284" r="1.60448" transform="rotate(90 387.749 81.8284)" fill="#303032"/>
<circle cx="408.072" cy="81.8284" r="1.60448" transform="rotate(90 408.072 81.8284)" fill="#303032"/>
<circle cx="428.396" cy="81.8284" r="1.60448" transform="rotate(90 428.396 81.8284)" fill="#303032"/>
<circle cx="164.191" cy="81.8284" r="1.60448" transform="rotate(90 164.191 81.8284)" fill="#303032"/>
<circle cx="143.868" cy="81.8284" r="1.60448" transform="rotate(90 143.868 81.8284)" fill="#303032"/>
<circle cx="123.545" cy="81.8284" r="1.60448" transform="rotate(90 123.545 81.8284)" fill="#303032"/>
<circle cx="103.222" cy="81.8284" r="1.60448" transform="rotate(90 103.222 81.8284)" fill="#303032"/>
<circle cx="82.8975" cy="81.8284" r="1.60448" transform="rotate(90 82.8975 81.8284)" fill="#303032"/>
<circle cx="62.5742" cy="81.8284" r="1.60448" transform="rotate(90 62.5742 81.8284)" fill="#303032"/>
<circle cx="42.251" cy="81.8284" r="1.60448" transform="rotate(90 42.251 81.8284)" fill="#303032"/>
<circle cx="21.9277" cy="81.8284" r="1.60448" transform="rotate(90 21.9277 81.8284)" fill="#303032"/>
<circle cx="1.60451" cy="81.8284" r="1.60448" transform="rotate(90 1.60451 81.8284)" fill="#303032"/>
<circle cx="184.515" cy="108.57" r="1.60448" transform="rotate(90 184.515 108.57)" fill="#303032"/>
<circle cx="204.838" cy="108.57" r="1.60448" transform="rotate(90 204.838 108.57)" fill="#303032"/>
<circle cx="225.161" cy="108.57" r="1.60448" transform="rotate(90 225.161 108.57)" fill="#303032"/>
<circle cx="245.484" cy="108.57" r="1.60448" transform="rotate(90 245.484 108.57)" fill="#303032"/>
<circle cx="265.809" cy="108.57" r="1.60448" transform="rotate(90 265.809 108.57)" fill="#303032"/>
<circle cx="286.132" cy="108.57" r="1.60448" transform="rotate(90 286.132 108.57)" fill="#303032"/>
<circle cx="306.455" cy="108.57" r="1.60448" transform="rotate(90 306.455 108.57)" fill="#303032"/>
<circle cx="326.778" cy="108.57" r="1.60448" transform="rotate(90 326.778 108.57)" fill="#303032"/>
<circle cx="347.103" cy="108.57" r="1.60448" transform="rotate(90 347.103 108.57)" fill="#303032"/>
<circle cx="367.426" cy="108.57" r="1.60448" transform="rotate(90 367.426 108.57)" fill="#303032"/>
<circle cx="387.749" cy="108.57" r="1.60448" transform="rotate(90 387.749 108.57)" fill="#303032"/>
<circle cx="408.072" cy="108.57" r="1.60448" transform="rotate(90 408.072 108.57)" fill="#303032"/>
<circle cx="428.396" cy="108.57" r="1.60448" transform="rotate(90 428.396 108.57)" fill="#303032"/>
<circle cx="164.191" cy="108.57" r="1.60448" transform="rotate(90 164.191 108.57)" fill="#303032"/>
<circle cx="143.868" cy="108.57" r="1.60448" transform="rotate(90 143.868 108.57)" fill="#303032"/>
<circle cx="123.545" cy="108.57" r="1.60448" transform="rotate(90 123.545 108.57)" fill="#303032"/>
<circle cx="103.222" cy="108.57" r="1.60448" transform="rotate(90 103.222 108.57)" fill="#303032"/>
<circle cx="82.8975" cy="108.57" r="1.60448" transform="rotate(90 82.8975 108.57)" fill="#303032"/>
<circle cx="62.5742" cy="108.57" r="1.60448" transform="rotate(90 62.5742 108.57)" fill="#303032"/>
<circle cx="42.251" cy="108.57" r="1.60448" transform="rotate(90 42.251 108.57)" fill="#303032"/>
<circle cx="21.9277" cy="108.57" r="1.60448" transform="rotate(90 21.9277 108.57)" fill="#303032"/>
<circle cx="1.60451" cy="108.57" r="1.60448" transform="rotate(90 1.60451 108.57)" fill="#303032"/>
<circle cx="184.515" cy="135.311" r="1.60448" transform="rotate(90 184.515 135.311)" fill="#303032"/>
<circle cx="204.838" cy="135.311" r="1.60448" transform="rotate(90 204.838 135.311)" fill="#303032"/>
<circle cx="225.161" cy="135.311" r="1.60448" transform="rotate(90 225.161 135.311)" fill="#303032"/>
<circle cx="245.484" cy="135.311" r="1.60448" transform="rotate(90 245.484 135.311)" fill="#303032"/>
<circle cx="265.809" cy="135.311" r="1.60448" transform="rotate(90 265.809 135.311)" fill="#303032"/>
<circle cx="286.132" cy="135.311" r="1.60448" transform="rotate(90 286.132 135.311)" fill="#303032"/>
<circle cx="306.455" cy="135.311" r="1.60448" transform="rotate(90 306.455 135.311)" fill="#303032"/>
<circle cx="326.778" cy="135.311" r="1.60448" transform="rotate(90 326.778 135.311)" fill="#303032"/>
<circle cx="347.103" cy="135.311" r="1.60448" transform="rotate(90 347.103 135.311)" fill="#303032"/>
<circle cx="367.426" cy="135.311" r="1.60448" transform="rotate(90 367.426 135.311)" fill="#303032"/>
<circle cx="387.749" cy="135.311" r="1.60448" transform="rotate(90 387.749 135.311)" fill="#303032"/>
<circle cx="408.072" cy="135.311" r="1.60448" transform="rotate(90 408.072 135.311)" fill="#303032"/>
<circle cx="428.396" cy="135.311" r="1.60448" transform="rotate(90 428.396 135.311)" fill="#303032"/>
<circle cx="164.191" cy="135.311" r="1.60448" transform="rotate(90 164.191 135.311)" fill="#303032"/>
<circle cx="143.868" cy="135.311" r="1.60448" transform="rotate(90 143.868 135.311)" fill="#303032"/>
<circle cx="123.545" cy="135.311" r="1.60448" transform="rotate(90 123.545 135.311)" fill="#303032"/>
<circle cx="103.222" cy="135.311" r="1.60448" transform="rotate(90 103.222 135.311)" fill="#303032"/>
<circle cx="82.8975" cy="135.311" r="1.60448" transform="rotate(90 82.8975 135.311)" fill="#303032"/>
<circle cx="62.5742" cy="135.311" r="1.60448" transform="rotate(90 62.5742 135.311)" fill="#303032"/>
<circle cx="42.251" cy="135.311" r="1.60448" transform="rotate(90 42.251 135.311)" fill="#303032"/>
<circle cx="21.9277" cy="135.311" r="1.60448" transform="rotate(90 21.9277 135.311)" fill="#303032"/>
<circle cx="1.60451" cy="135.311" r="1.60448" transform="rotate(90 1.60451 135.311)" fill="#303032"/>
<circle cx="184.515" cy="162.052" r="1.60448" transform="rotate(90 184.515 162.052)" fill="#303032"/>
<circle cx="204.838" cy="162.052" r="1.60448" transform="rotate(90 204.838 162.052)" fill="#303032"/>
<circle cx="225.161" cy="162.052" r="1.60448" transform="rotate(90 225.161 162.052)" fill="#303032"/>
<circle cx="245.484" cy="162.052" r="1.60448" transform="rotate(90 245.484 162.052)" fill="#303032"/>
<circle cx="265.809" cy="162.052" r="1.60448" transform="rotate(90 265.809 162.052)" fill="#303032"/>
<circle cx="286.132" cy="162.052" r="1.60448" transform="rotate(90 286.132 162.052)" fill="#303032"/>
<circle cx="306.455" cy="162.052" r="1.60448" transform="rotate(90 306.455 162.052)" fill="#303032"/>
<circle cx="326.778" cy="162.052" r="1.60448" transform="rotate(90 326.778 162.052)" fill="#303032"/>
<circle cx="347.103" cy="162.052" r="1.60448" transform="rotate(90 347.103 162.052)" fill="#303032"/>
<circle cx="367.426" cy="162.052" r="1.60448" transform="rotate(90 367.426 162.052)" fill="#303032"/>
<circle cx="387.749" cy="162.052" r="1.60448" transform="rotate(90 387.749 162.052)" fill="#303032"/>
<circle cx="408.072" cy="162.052" r="1.60448" transform="rotate(90 408.072 162.052)" fill="#303032"/>
<circle cx="428.396" cy="162.052" r="1.60448" transform="rotate(90 428.396 162.052)" fill="#303032"/>
<circle cx="164.191" cy="162.052" r="1.60448" transform="rotate(90 164.191 162.052)" fill="#303032"/>
<circle cx="143.868" cy="162.052" r="1.60448" transform="rotate(90 143.868 162.052)" fill="#303032"/>
<circle cx="123.545" cy="162.052" r="1.60448" transform="rotate(90 123.545 162.052)" fill="#303032"/>
<circle cx="103.222" cy="162.052" r="1.60448" transform="rotate(90 103.222 162.052)" fill="#303032"/>
<circle cx="82.8975" cy="162.052" r="1.60448" transform="rotate(90 82.8975 162.052)" fill="#303032"/>
<circle cx="62.5742" cy="162.052" r="1.60448" transform="rotate(90 62.5742 162.052)" fill="#303032"/>
<circle cx="42.251" cy="162.052" r="1.60448" transform="rotate(90 42.251 162.052)" fill="#303032"/>
<circle cx="21.9277" cy="162.052" r="1.60448" transform="rotate(90 21.9277 162.052)" fill="#303032"/>
<circle cx="1.60451" cy="162.052" r="1.60448" transform="rotate(90 1.60451 162.052)" fill="#303032"/>
<circle cx="184.515" cy="188.794" r="1.60448" transform="rotate(90 184.515 188.794)" fill="#303032"/>
<circle cx="204.838" cy="188.794" r="1.60448" transform="rotate(90 204.838 188.794)" fill="#303032"/>
<circle cx="225.161" cy="188.794" r="1.60448" transform="rotate(90 225.161 188.794)" fill="#303032"/>
<circle cx="245.484" cy="188.794" r="1.60448" transform="rotate(90 245.484 188.794)" fill="#303032"/>
<circle cx="265.809" cy="188.794" r="1.60448" transform="rotate(90 265.809 188.794)" fill="#303032"/>
<circle cx="286.132" cy="188.794" r="1.60448" transform="rotate(90 286.132 188.794)" fill="#303032"/>
<circle cx="306.455" cy="188.794" r="1.60448" transform="rotate(90 306.455 188.794)" fill="#303032"/>
<circle cx="326.778" cy="188.794" r="1.60448" transform="rotate(90 326.778 188.794)" fill="#303032"/>
<circle cx="347.103" cy="188.794" r="1.60448" transform="rotate(90 347.103 188.794)" fill="#303032"/>
<circle cx="367.426" cy="188.794" r="1.60448" transform="rotate(90 367.426 188.794)" fill="#303032"/>
<circle cx="387.749" cy="188.794" r="1.60448" transform="rotate(90 387.749 188.794)" fill="#303032"/>
<circle cx="408.072" cy="188.794" r="1.60448" transform="rotate(90 408.072 188.794)" fill="#303032"/>
<circle cx="428.396" cy="188.794" r="1.60448" transform="rotate(90 428.396 188.794)" fill="#303032"/>
<circle cx="164.191" cy="188.794" r="1.60448" transform="rotate(90 164.191 188.794)" fill="#303032"/>
<circle cx="143.868" cy="188.794" r="1.60448" transform="rotate(90 143.868 188.794)" fill="#303032"/>
<circle cx="123.545" cy="188.794" r="1.60448" transform="rotate(90 123.545 188.794)" fill="#303032"/>
<circle cx="103.222" cy="188.794" r="1.60448" transform="rotate(90 103.222 188.794)" fill="#303032"/>
<circle cx="82.8975" cy="188.794" r="1.60448" transform="rotate(90 82.8975 188.794)" fill="#303032"/>
<circle cx="62.5742" cy="188.794" r="1.60448" transform="rotate(90 62.5742 188.794)" fill="#303032"/>
<circle cx="42.251" cy="188.794" r="1.60448" transform="rotate(90 42.251 188.794)" fill="#303032"/>
<circle cx="21.9277" cy="188.794" r="1.60448" transform="rotate(90 21.9277 188.794)" fill="#303032"/>
<circle cx="1.60451" cy="188.794" r="1.60448" transform="rotate(90 1.60451 188.794)" fill="#303032"/>
<circle cx="184.515" cy="215.535" r="1.60448" transform="rotate(90 184.515 215.535)" fill="#303032"/>
<circle cx="204.838" cy="215.535" r="1.60448" transform="rotate(90 204.838 215.535)" fill="#303032"/>
<circle cx="225.161" cy="215.535" r="1.60448" transform="rotate(90 225.161 215.535)" fill="#303032"/>
<circle cx="245.484" cy="215.535" r="1.60448" transform="rotate(90 245.484 215.535)" fill="#303032"/>
<circle cx="265.809" cy="215.535" r="1.60448" transform="rotate(90 265.809 215.535)" fill="#303032"/>
<circle cx="286.132" cy="215.535" r="1.60448" transform="rotate(90 286.132 215.535)" fill="#303032"/>
<circle cx="306.455" cy="215.535" r="1.60448" transform="rotate(90 306.455 215.535)" fill="#303032"/>
<circle cx="326.778" cy="215.535" r="1.60448" transform="rotate(90 326.778 215.535)" fill="#303032"/>
<circle cx="347.103" cy="215.535" r="1.60448" transform="rotate(90 347.103 215.535)" fill="#303032"/>
<circle cx="367.426" cy="215.535" r="1.60448" transform="rotate(90 367.426 215.535)" fill="#303032"/>
<circle cx="387.749" cy="215.535" r="1.60448" transform="rotate(90 387.749 215.535)" fill="#303032"/>
<circle cx="408.072" cy="215.535" r="1.60448" transform="rotate(90 408.072 215.535)" fill="#303032"/>
<circle cx="428.396" cy="215.535" r="1.60448" transform="rotate(90 428.396 215.535)" fill="#303032"/>
<circle cx="164.191" cy="215.535" r="1.60448" transform="rotate(90 164.191 215.535)" fill="#303032"/>
<circle cx="143.868" cy="215.535" r="1.60448" transform="rotate(90 143.868 215.535)" fill="#303032"/>
<circle cx="123.545" cy="215.535" r="1.60448" transform="rotate(90 123.545 215.535)" fill="#303032"/>
<circle cx="103.222" cy="215.535" r="1.60448" transform="rotate(90 103.222 215.535)" fill="#303032"/>
<circle cx="82.8975" cy="215.535" r="1.60448" transform="rotate(90 82.8975 215.535)" fill="#303032"/>
<circle cx="62.5742" cy="215.535" r="1.60448" transform="rotate(90 62.5742 215.535)" fill="#303032"/>
<circle cx="42.251" cy="215.535" r="1.60448" transform="rotate(90 42.251 215.535)" fill="#303032"/>
<circle cx="21.9277" cy="215.535" r="1.60448" transform="rotate(90 21.9277 215.535)" fill="#303032"/>
<circle cx="1.60451" cy="215.535" r="1.60448" transform="rotate(90 1.60451 215.535)" fill="#303032"/>
<circle cx="184.515" cy="242.276" r="1.60448" transform="rotate(90 184.515 242.276)" fill="#303032"/>
<circle cx="204.838" cy="242.276" r="1.60448" transform="rotate(90 204.838 242.276)" fill="#303032"/>
<circle cx="225.161" cy="242.276" r="1.60448" transform="rotate(90 225.161 242.276)" fill="#303032"/>
<circle cx="245.484" cy="242.276" r="1.60448" transform="rotate(90 245.484 242.276)" fill="#303032"/>
<circle cx="265.809" cy="242.276" r="1.60448" transform="rotate(90 265.809 242.276)" fill="#303032"/>
<circle cx="286.132" cy="242.276" r="1.60448" transform="rotate(90 286.132 242.276)" fill="#303032"/>
<circle cx="306.455" cy="242.276" r="1.60448" transform="rotate(90 306.455 242.276)" fill="#303032"/>
<circle cx="326.778" cy="242.276" r="1.60448" transform="rotate(90 326.778 242.276)" fill="#303032"/>
<circle cx="347.103" cy="242.276" r="1.60448" transform="rotate(90 347.103 242.276)" fill="#303032"/>
<circle cx="367.426" cy="242.276" r="1.60448" transform="rotate(90 367.426 242.276)" fill="#303032"/>
<circle cx="387.749" cy="242.276" r="1.60448" transform="rotate(90 387.749 242.276)" fill="#303032"/>
<circle cx="408.072" cy="242.276" r="1.60448" transform="rotate(90 408.072 242.276)" fill="#303032"/>
<circle cx="428.396" cy="242.276" r="1.60448" transform="rotate(90 428.396 242.276)" fill="#303032"/>
<circle cx="164.191" cy="242.276" r="1.60448" transform="rotate(90 164.191 242.276)" fill="#303032"/>
<circle cx="143.868" cy="242.276" r="1.60448" transform="rotate(90 143.868 242.276)" fill="#303032"/>
<circle cx="123.545" cy="242.276" r="1.60448" transform="rotate(90 123.545 242.276)" fill="#303032"/>
<circle cx="103.222" cy="242.276" r="1.60448" transform="rotate(90 103.222 242.276)" fill="#303032"/>
<circle cx="82.8975" cy="242.276" r="1.60448" transform="rotate(90 82.8975 242.276)" fill="#303032"/>
<circle cx="62.5742" cy="242.276" r="1.60448" transform="rotate(90 62.5742 242.276)" fill="#303032"/>
<circle cx="42.251" cy="242.276" r="1.60448" transform="rotate(90 42.251 242.276)" fill="#303032"/>
<circle cx="21.9277" cy="242.276" r="1.60448" transform="rotate(90 21.9277 242.276)" fill="#303032"/>
<circle cx="1.60451" cy="242.276" r="1.60448" transform="rotate(90 1.60451 242.276)" fill="#303032"/>
<circle cx="184.515" cy="269.017" r="1.60448" transform="rotate(90 184.515 269.017)" fill="#303032"/>
<circle cx="204.838" cy="269.017" r="1.60448" transform="rotate(90 204.838 269.017)" fill="#303032"/>
<circle cx="225.161" cy="269.017" r="1.60448" transform="rotate(90 225.161 269.017)" fill="#303032"/>
<circle cx="245.484" cy="269.017" r="1.60448" transform="rotate(90 245.484 269.017)" fill="#303032"/>
<circle cx="265.809" cy="269.017" r="1.60448" transform="rotate(90 265.809 269.017)" fill="#303032"/>
<circle cx="286.132" cy="269.017" r="1.60448" transform="rotate(90 286.132 269.017)" fill="#303032"/>
<circle cx="306.455" cy="269.017" r="1.60448" transform="rotate(90 306.455 269.017)" fill="#303032"/>
<circle cx="326.778" cy="269.017" r="1.60448" transform="rotate(90 326.778 269.017)" fill="#303032"/>
<circle cx="347.103" cy="269.017" r="1.60448" transform="rotate(90 347.103 269.017)" fill="#303032"/>
<circle cx="367.426" cy="269.017" r="1.60448" transform="rotate(90 367.426 269.017)" fill="#303032"/>
<circle cx="387.749" cy="269.017" r="1.60448" transform="rotate(90 387.749 269.017)" fill="#303032"/>
<circle cx="408.072" cy="269.017" r="1.60448" transform="rotate(90 408.072 269.017)" fill="#303032"/>
<circle cx="428.396" cy="269.017" r="1.60448" transform="rotate(90 428.396 269.017)" fill="#303032"/>
<circle cx="164.191" cy="269.017" r="1.60448" transform="rotate(90 164.191 269.017)" fill="#303032"/>
<circle cx="143.868" cy="269.017" r="1.60448" transform="rotate(90 143.868 269.017)" fill="#303032"/>
<circle cx="123.545" cy="269.017" r="1.60448" transform="rotate(90 123.545 269.017)" fill="#303032"/>
<circle cx="103.222" cy="269.017" r="1.60448" transform="rotate(90 103.222 269.017)" fill="#303032"/>
<circle cx="82.8975" cy="269.017" r="1.60448" transform="rotate(90 82.8975 269.017)" fill="#303032"/>
<circle cx="62.5742" cy="269.017" r="1.60448" transform="rotate(90 62.5742 269.017)" fill="#303032"/>
<circle cx="42.251" cy="269.017" r="1.60448" transform="rotate(90 42.251 269.017)" fill="#303032"/>
<circle cx="21.9277" cy="269.017" r="1.60448" transform="rotate(90 21.9277 269.017)" fill="#303032"/>
<circle cx="1.60451" cy="269.017" r="1.60448" transform="rotate(90 1.60451 269.017)" fill="#303032"/>
<circle cx="184.515" cy="295.759" r="1.60448" transform="rotate(90 184.515 295.759)" fill="#303032"/>
<circle cx="204.838" cy="295.759" r="1.60448" transform="rotate(90 204.838 295.759)" fill="#303032"/>
<circle cx="225.161" cy="295.759" r="1.60448" transform="rotate(90 225.161 295.759)" fill="#303032"/>
<circle cx="245.484" cy="295.759" r="1.60448" transform="rotate(90 245.484 295.759)" fill="#303032"/>
<circle cx="265.809" cy="295.759" r="1.60448" transform="rotate(90 265.809 295.759)" fill="#303032"/>
<circle cx="286.132" cy="295.759" r="1.60448" transform="rotate(90 286.132 295.759)" fill="#303032"/>
<circle cx="306.455" cy="295.759" r="1.60448" transform="rotate(90 306.455 295.759)" fill="#303032"/>
<circle cx="326.778" cy="295.759" r="1.60448" transform="rotate(90 326.778 295.759)" fill="#303032"/>
<circle cx="347.103" cy="295.759" r="1.60448" transform="rotate(90 347.103 295.759)" fill="#303032"/>
<circle cx="367.426" cy="295.759" r="1.60448" transform="rotate(90 367.426 295.759)" fill="#303032"/>
<circle cx="387.749" cy="295.759" r="1.60448" transform="rotate(90 387.749 295.759)" fill="#303032"/>
<circle cx="408.072" cy="295.759" r="1.60448" transform="rotate(90 408.072 295.759)" fill="#303032"/>
<circle cx="428.396" cy="295.759" r="1.60448" transform="rotate(90 428.396 295.759)" fill="#303032"/>
<circle cx="164.191" cy="295.759" r="1.60448" transform="rotate(90 164.191 295.759)" fill="#303032"/>
<circle cx="143.868" cy="295.759" r="1.60448" transform="rotate(90 143.868 295.759)" fill="#303032"/>
<circle cx="123.545" cy="295.759" r="1.60448" transform="rotate(90 123.545 295.759)" fill="#303032"/>
<circle cx="103.222" cy="295.759" r="1.60448" transform="rotate(90 103.222 295.759)" fill="#303032"/>
<circle cx="82.8975" cy="295.759" r="1.60448" transform="rotate(90 82.8975 295.759)" fill="#303032"/>
<circle cx="62.5742" cy="295.759" r="1.60448" transform="rotate(90 62.5742 295.759)" fill="#303032"/>
<circle cx="42.251" cy="295.759" r="1.60448" transform="rotate(90 42.251 295.759)" fill="#303032"/>
<circle cx="21.9277" cy="295.759" r="1.60448" transform="rotate(90 21.9277 295.759)" fill="#303032"/>
<circle cx="1.60451" cy="295.759" r="1.60448" transform="rotate(90 1.60451 295.759)" fill="#303032"/>
<circle cx="184.515" cy="322.5" r="1.60448" transform="rotate(90 184.515 322.5)" fill="#303032"/>
<circle cx="204.838" cy="322.5" r="1.60448" transform="rotate(90 204.838 322.5)" fill="#303032"/>
<circle cx="225.161" cy="322.5" r="1.60448" transform="rotate(90 225.161 322.5)" fill="#303032"/>
<circle cx="245.484" cy="322.5" r="1.60448" transform="rotate(90 245.484 322.5)" fill="#303032"/>
<circle cx="265.809" cy="322.5" r="1.60448" transform="rotate(90 265.809 322.5)" fill="#303032"/>
<circle cx="286.132" cy="322.5" r="1.60448" transform="rotate(90 286.132 322.5)" fill="#303032"/>
<circle cx="306.455" cy="322.5" r="1.60448" transform="rotate(90 306.455 322.5)" fill="#303032"/>
<circle cx="326.778" cy="322.5" r="1.60448" transform="rotate(90 326.778 322.5)" fill="#303032"/>
<circle cx="347.103" cy="322.5" r="1.60448" transform="rotate(90 347.103 322.5)" fill="#303032"/>
<circle cx="367.426" cy="322.5" r="1.60448" transform="rotate(90 367.426 322.5)" fill="#303032"/>
<circle cx="387.749" cy="322.5" r="1.60448" transform="rotate(90 387.749 322.5)" fill="#303032"/>
<circle cx="408.072" cy="322.5" r="1.60448" transform="rotate(90 408.072 322.5)" fill="#303032"/>
<circle cx="428.396" cy="322.5" r="1.60448" transform="rotate(90 428.396 322.5)" fill="#303032"/>
<circle cx="164.191" cy="322.5" r="1.60448" transform="rotate(90 164.191 322.5)" fill="#303032"/>
<circle cx="143.868" cy="322.5" r="1.60448" transform="rotate(90 143.868 322.5)" fill="#303032"/>
<circle cx="123.545" cy="322.5" r="1.60448" transform="rotate(90 123.545 322.5)" fill="#303032"/>
<circle cx="103.222" cy="322.5" r="1.60448" transform="rotate(90 103.222 322.5)" fill="#303032"/>
<circle cx="82.8975" cy="322.5" r="1.60448" transform="rotate(90 82.8975 322.5)" fill="#303032"/>
<circle cx="62.5742" cy="322.5" r="1.60448" transform="rotate(90 62.5742 322.5)" fill="#303032"/>
<circle cx="42.251" cy="322.5" r="1.60448" transform="rotate(90 42.251 322.5)" fill="#303032"/>
<circle cx="21.9277" cy="322.5" r="1.60448" transform="rotate(90 21.9277 322.5)" fill="#303032"/>
<circle cx="1.60451" cy="322.5" r="1.60448" transform="rotate(90 1.60451 322.5)" fill="#303032"/>
<circle cx="184.515" cy="349.241" r="1.60448" transform="rotate(90 184.515 349.241)" fill="#303032"/>
<circle cx="204.838" cy="349.241" r="1.60448" transform="rotate(90 204.838 349.241)" fill="#303032"/>
<circle cx="225.161" cy="349.241" r="1.60448" transform="rotate(90 225.161 349.241)" fill="#303032"/>
<circle cx="245.484" cy="349.241" r="1.60448" transform="rotate(90 245.484 349.241)" fill="#303032"/>
<circle cx="265.809" cy="349.241" r="1.60448" transform="rotate(90 265.809 349.241)" fill="#303032"/>
<circle cx="286.132" cy="349.241" r="1.60448" transform="rotate(90 286.132 349.241)" fill="#303032"/>
<circle cx="306.455" cy="349.241" r="1.60448" transform="rotate(90 306.455 349.241)" fill="#303032"/>
<circle cx="326.778" cy="349.241" r="1.60448" transform="rotate(90 326.778 349.241)" fill="#303032"/>
<circle cx="347.103" cy="349.241" r="1.60448" transform="rotate(90 347.103 349.241)" fill="#303032"/>
<circle cx="367.426" cy="349.241" r="1.60448" transform="rotate(90 367.426 349.241)" fill="#303032"/>
<circle cx="387.749" cy="349.241" r="1.60448" transform="rotate(90 387.749 349.241)" fill="#303032"/>
<circle cx="408.072" cy="349.241" r="1.60448" transform="rotate(90 408.072 349.241)" fill="#303032"/>
<circle cx="428.396" cy="349.241" r="1.60448" transform="rotate(90 428.396 349.241)" fill="#303032"/>
<circle cx="164.191" cy="349.241" r="1.60448" transform="rotate(90 164.191 349.241)" fill="#303032"/>
<circle cx="143.868" cy="349.241" r="1.60448" transform="rotate(90 143.868 349.241)" fill="#303032"/>
<circle cx="123.545" cy="349.241" r="1.60448" transform="rotate(90 123.545 349.241)" fill="#303032"/>
<circle cx="103.222" cy="349.241" r="1.60448" transform="rotate(90 103.222 349.241)" fill="#303032"/>
<circle cx="82.8975" cy="349.241" r="1.60448" transform="rotate(90 82.8975 349.241)" fill="#303032"/>
<circle cx="62.5742" cy="349.241" r="1.60448" transform="rotate(90 62.5742 349.241)" fill="#303032"/>
<circle cx="42.251" cy="349.241" r="1.60448" transform="rotate(90 42.251 349.241)" fill="#303032"/>
<circle cx="21.9277" cy="349.241" r="1.60448" transform="rotate(90 21.9277 349.241)" fill="#303032"/>
<circle cx="1.60451" cy="349.241" r="1.60448" transform="rotate(90 1.60451 349.241)" fill="#303032"/>
<circle cx="184.515" cy="375.983" r="1.60448" transform="rotate(90 184.515 375.983)" fill="#303032"/>
<circle cx="204.838" cy="375.983" r="1.60448" transform="rotate(90 204.838 375.983)" fill="#303032"/>
<circle cx="225.161" cy="375.983" r="1.60448" transform="rotate(90 225.161 375.983)" fill="#303032"/>
<circle cx="245.484" cy="375.983" r="1.60448" transform="rotate(90 245.484 375.983)" fill="#303032"/>
<circle cx="265.809" cy="375.983" r="1.60448" transform="rotate(90 265.809 375.983)" fill="#303032"/>
<circle cx="286.132" cy="375.983" r="1.60448" transform="rotate(90 286.132 375.983)" fill="#303032"/>
<circle cx="306.455" cy="375.983" r="1.60448" transform="rotate(90 306.455 375.983)" fill="#303032"/>
<circle cx="326.778" cy="375.983" r="1.60448" transform="rotate(90 326.778 375.983)" fill="#303032"/>
<circle cx="347.103" cy="375.983" r="1.60448" transform="rotate(90 347.103 375.983)" fill="#303032"/>
<circle cx="367.426" cy="375.983" r="1.60448" transform="rotate(90 367.426 375.983)" fill="#303032"/>
<circle cx="387.749" cy="375.983" r="1.60448" transform="rotate(90 387.749 375.983)" fill="#303032"/>
<circle cx="408.072" cy="375.983" r="1.60448" transform="rotate(90 408.072 375.983)" fill="#303032"/>
<circle cx="428.396" cy="375.983" r="1.60448" transform="rotate(90 428.396 375.983)" fill="#303032"/>
<circle cx="164.191" cy="375.983" r="1.60448" transform="rotate(90 164.191 375.983)" fill="#303032"/>
<circle cx="143.868" cy="375.983" r="1.60448" transform="rotate(90 143.868 375.983)" fill="#303032"/>
<circle cx="123.545" cy="375.983" r="1.60448" transform="rotate(90 123.545 375.983)" fill="#303032"/>
<circle cx="103.222" cy="375.983" r="1.60448" transform="rotate(90 103.222 375.983)" fill="#303032"/>
<circle cx="82.8975" cy="375.983" r="1.60448" transform="rotate(90 82.8975 375.983)" fill="#303032"/>
<circle cx="62.5742" cy="375.983" r="1.60448" transform="rotate(90 62.5742 375.983)" fill="#303032"/>
<circle cx="42.251" cy="375.983" r="1.60448" transform="rotate(90 42.251 375.983)" fill="#303032"/>
<circle cx="21.9277" cy="375.983" r="1.60448" transform="rotate(90 21.9277 375.983)" fill="#303032"/>
<circle cx="1.60451" cy="375.983" r="1.60448" transform="rotate(90 1.60451 375.983)" fill="#303032"/>
</g>
</svg>
