<svg width="5" height="13" viewBox="0 0 5 13" fill="none" xmlns="http://www.w3.org/2000/svg">
<path d="M4.43131 1.80457C4.43131 2.07481 4.31382 2.32742 4.07883 2.5624C3.84972 2.79151 3.60593 2.90607 3.34744 2.90607C3.06546 2.90607 2.83341 2.82382 2.6513 2.65933C2.47506 2.49484 2.38694 2.28042 2.38694 2.01606C2.38694 1.75758 2.50443 1.51672 2.73942 1.29348C2.9744 1.07024 3.2182 0.958626 3.47081 0.958626C4.11115 0.958626 4.43131 1.24061 4.43131 1.80457ZM4.10527 10.6782C3.34744 11.6181 2.68655 12.0881 2.12258 12.0881C1.54099 12.0881 1.2502 11.859 1.2502 11.4008C1.2502 11.201 1.43231 10.4138 1.79654 9.03918C2.23714 7.34729 2.45744 6.42204 2.45744 6.26342C2.45744 6.09306 2.35169 6.00787 2.14021 6.00787C1.96397 6.00787 1.65555 6.27811 1.21495 6.81857C1.2032 6.8362 1.18558 6.84501 1.16208 6.84501C1.10333 6.84501 1.03871 6.80682 0.968216 6.73045C0.903595 6.65408 0.871284 6.58359 0.871284 6.51897C0.871284 6.48959 0.877159 6.46903 0.888908 6.45728C1.65849 5.50559 2.32232 5.02975 2.88041 5.02975C3.45612 5.02975 3.74398 5.27061 3.74398 5.75233C3.74398 6.03431 3.56774 6.81857 3.21526 8.10512C2.77467 9.74414 2.55437 10.6635 2.55437 10.8633C2.55437 11.0336 2.65424 11.1188 2.85397 11.1188C3.02434 11.1188 3.33863 10.8544 3.79685 10.3257C3.8086 10.3081 3.82329 10.2993 3.84091 10.2993C3.89378 10.2993 3.95253 10.3375 4.01715 10.4138C4.08765 10.4902 4.12289 10.5578 4.12289 10.6165C4.12289 10.6459 4.11702 10.6665 4.10527 10.6782Z" fill="#97A2B6"/>
</svg>
