<svg width="171" height="61" viewBox="0 0 171 61" fill="none" xmlns="http://www.w3.org/2000/svg">
<path fill-rule="evenodd" clip-rule="evenodd" d="M52.8365 17.7405C53.278 18.5316 53.6118 19.1295 53.2529 21.3724C53.5628 21.4653 54.7404 21.1492 56.9716 19.1411C57.2691 18.918 57.2815 18.1805 57.2505 17.8396C57.2195 17.6846 57.046 17.3748 56.5997 17.3748C56.0419 17.3748 52.8811 17.3748 52.7881 17.6537C52.8043 17.6829 52.8205 17.7119 52.8365 17.7405ZM53.0671 17.7569C53.4535 18.4937 53.6249 19.2444 53.532 20.5459C54.2581 20.3644 55.2502 19.5759 56.0755 18.9199C56.0954 18.904 56.1153 18.8883 56.1351 18.8725C56.3823 18.6761 56.3467 18.1501 56.321 17.8499C56.2952 17.7135 56.0411 17.571 55.6702 17.571C55.611 17.571 55.5256 17.57 55.4216 17.5688C54.7119 17.5607 53.1345 17.5427 53.0671 17.7569Z" fill="#1C1C1C"/>
<path d="M4.97336 30.5725C3.48936 30.7103 3.50058 31.082 3.32314 31.3663C31.7053 29.989 43.5502 31.7821 47.5064 33.0964C48.3693 32.1031 49.3658 31.3301 50.0166 31.0512C34.4112 28.6388 6.45735 30.4347 4.97336 30.5725Z" fill="#1C1C1C"/>
<path d="M35.2177 19.1409C17.9258 16.8167 11.79 18.6761 7.51345 19.6987C6.49081 21.837 7.32752 24.4401 8.25719 24.4401C9.00093 24.4401 9.49669 24.0682 9.46571 23.8823L7.88532 23.5104C16.0665 22.3948 25.4871 23.6653 29.1749 24.4401L27.2225 24.626C27.1482 25.6672 29.7326 26.4234 31.1271 26.4853L32.1498 26.2994L33.7303 23.6034L33.3584 23.5104C23.3179 20.6842 11.8829 21.713 7.42049 22.5807L8.16422 21.5581C9.20546 21.4837 9.71362 21.0313 9.65164 20.8143L8.62906 20.4425C18.2977 19.1781 27.1606 19.9157 30.3834 20.4425L28.71 20.8143C29.1749 21.744 29.7326 21.837 30.1974 21.9299C30.5693 22.0043 32.3667 22.3328 33.2654 22.3948L35.2177 19.1409Z" fill="#1C1C1C"/>
<path d="M54.3693 22.7666C52.4356 23.5847 46.4361 24.5949 43.6781 24.9978C46.653 24.6259 52.9562 23.8264 54.3693 23.6033C56.1357 23.3244 57.2513 22.5807 59.7614 21.3721C62.2716 20.1635 63.1082 19.3268 63.2941 17.8393C63.4801 16.3518 64.0379 15.5151 62.1785 15.5151C51.2084 15.1432 43.2132 15.6081 41.3538 15.5151C39.4945 15.4222 39.1227 16.4448 38.9367 16.9096C38.7508 17.3745 37.6352 21.0002 37.7281 21.0002C39.4016 17.1885 39.8664 16.4448 40.7031 16.4448C46.4671 16.1659 59.8544 16.5378 59.7614 17.0956C59.2036 19.6987 58.3669 20.6283 57.995 20.9072C57.6232 21.1861 56.7865 21.7439 54.3693 22.7666Z" fill="#1C1C1C"/>
<path fill-rule="evenodd" clip-rule="evenodd" d="M22.8532 27.88C24.4027 27.787 27.7991 27.5267 28.989 27.2292C29.1123 27.1984 29.2393 27.1727 29.3696 27.1464C30.419 26.9341 31.6789 26.6792 32.8457 23.3725L34.1954 23.6964C34.1397 23.6487 34.0864 23.6016 34.0336 23.555C33.7625 23.3157 33.5057 23.089 33.02 22.8534C33.344 21.8397 33.6595 20.5748 33.9598 18.9925L35.5899 19.234C35.2763 18.9652 34.6209 18.6829 34.0544 18.4806C34.0704 18.3918 34.0864 18.3021 34.1023 18.2114C34.337 16.0986 30.6858 16.0935 27.7499 16.0894C27.1978 16.0886 26.671 16.0879 26.2 16.0731C23.2251 15.9802 12.0004 17 11.4182 17.0958C10.0545 17.3202 8.81513 17.9325 8.53623 18.7692C8.51908 18.8206 8.50192 18.8682 8.48497 18.9135C8.01944 19.133 7.54128 19.4471 7.23488 19.8848C7.52084 19.7577 7.90453 19.6306 8.28574 19.5183C8.20235 19.9226 8.17748 20.5704 8.28986 22.0742C8.07734 22.229 7.87407 22.4247 7.69971 22.6738C7.86945 22.5984 8.08509 22.5306 8.32103 22.4704C8.37155 23.0842 8.44193 23.8233 8.53623 24.7191C8.8152 26.2995 9.74487 26.8574 11.2324 27.2292C10.2717 27.3842 8.18302 27.1734 7.51366 25.091C6.67695 22.4879 6.58398 20.2567 6.58398 19.6059C6.58398 18.9551 6.76992 17.0028 9.74487 16.538C12.7198 16.0731 21.1799 15.0505 33.5445 14.9575C37.1492 14.9575 36.7107 17.8062 36.5227 19.0269L36.5195 19.0481C36.3335 20.2567 35.4039 23.5105 33.8234 26.2995C32.8937 27.694 31.4063 27.88 30.1047 27.88H22.8532Z" fill="#1C1C1C"/>
<path d="M11.2324 14.2136C14.4863 10.9597 27.8736 9.56519 39.8664 9.56519C38.8251 10.6064 38.193 12.2922 38.007 13.005C30.5696 12.3542 19.2276 12.7261 16.1597 13.005C13.7054 13.2281 11.8522 13.9037 11.2324 14.2136Z" fill="#1C1C1C"/>
<path d="M2.21425 18.6762C3.8347 15.4353 6.76965 15.3293 7.79229 15.3293C7.79229 15.3293 6.76965 15.5153 5.65404 16.259C4.22722 17.2102 3.84196 18.2544 3.70173 18.8621C3.42282 20.0707 3.32986 20.8144 3.23689 21.6511C3.14392 22.4878 3.23689 23.0456 3.51579 23.5105C3.73891 23.8823 4.97228 24.905 5.56107 25.3698L2.95799 24.719C1.84238 24.4401 1.56348 23.6034 1.56348 23.0456C1.56348 22.4878 1.56348 19.9777 2.21425 18.6762Z" fill="#1C1C1C"/>
<path d="M46.0023 8.63564C42.2092 8.63564 40.2693 11.6726 39.7734 13.191C42.1906 10.7739 44.2261 11.0368 46.1882 11.1458C47.8616 11.2387 74.2595 12.9677 75.0081 13.0051C76.8674 13.0981 77.0998 12.9121 77.5182 12.3543C77.7971 11.9825 80.4931 8.72861 83.0033 4.82398C85.5134 0.919347 89.1391 2.03496 90.2547 2.31386C91.3703 2.59276 101.225 6.12552 105.222 7.8919C109.22 9.65828 109.871 10.6809 110.708 12.1684C112.474 15.5152 112.66 17.5605 109.406 18.5831C107.003 19.3382 97.236 17.934 91.5789 16.9578C113.346 21.1893 115.858 23.0663 117.308 23.8823C118.331 24.4575 119.044 26.0825 119.168 26.7643C119.075 23.6964 118.272 22.762 117.68 22.3018C116.604 21.4651 115.449 21.0933 112.195 19.9777L115.728 20.5355C113.497 11.5176 109.499 9.19344 108.662 8.82157C107.826 8.4497 95.5539 3.05759 90.2547 0.826377C84.9556 -1.40484 82.9103 1.47715 81.9806 2.49979C81.0509 3.52243 77.3323 8.91454 76.3096 10.402C75.1999 12.0161 75.1021 12.0091 72.173 11.7999L72.1261 11.7965C70.8245 11.7036 50.7436 8.63564 46.0023 8.63564Z" fill="#1C1C1C"/>
<path d="M50.0925 3.05753C50.8362 3.05753 70.5453 2.68566 80.3069 2.49972C81.1994 1.23537 82.1043 0.42345 82.4452 0.175537C72.4976 0.826309 52.2865 2.14645 51.0222 2.22082C49.4417 2.31379 48.698 2.77862 48.2332 3.05753C47.8613 3.28065 46.2808 4.20412 45.5371 4.63797C48.791 3.15049 49.1628 3.05753 50.0925 3.05753Z" fill="#1C1C1C"/>
<path d="M44.3454 34.3876C43.453 34.3876 39.0773 34.2636 37.001 34.2017C37.6828 34.4186 37.001 34.2017 40.2549 35.0384C41.4391 35.3429 44.2525 35.7821 45.3681 36.7118C46.4837 37.6415 47.6923 39.2219 47.9712 39.8727C48.2501 40.5234 47.9712 40.8953 47.3204 40.8953C46.6696 40.8953 43.1369 40.8023 41.1845 40.5234C39.2322 40.2445 37.5588 39.036 36.6291 38.1063C34.4909 36.154 34.119 36.3399 31.7948 36.3399C16.1763 36.8047 6.60068 35.968 5.29914 35.968C3.9976 35.968 3.9976 36.061 3.7187 36.3399C3.43979 36.6188 2.23122 38.5711 2.04528 38.943C1.85935 39.3149 1.76638 39.4078 1.30154 39.4078C0.836706 39.4078 0.836706 39.3149 0.743739 39.036C0.650772 38.7571 0.37187 37.1766 0.278902 37.1766C0.185935 37.1766 0 37.2696 0 37.4555C0.37187 39.8727 0.37187 40.2445 0.836706 40.2445C1.76638 40.2445 1.95231 40.3375 2.23122 39.9656C3.25386 38.0133 3.43979 37.8708 3.81166 37.9204C20.5458 40.1516 34.9557 39.8727 35.4206 39.8727C35.8854 39.8727 36.5052 39.8432 37.001 40.2445C38.9533 41.825 41.4635 42.1039 42.3002 42.1039C42.9695 42.1039 49.5826 42.3518 52.8055 42.4758C51.5969 40.6784 48.9566 36.8419 48.0641 35.8751C46.9485 34.6665 45.461 34.3876 44.3454 34.3876Z" fill="#1C1C1C"/>
<path d="M71.1028 19.6058C65.5247 19.5314 62.3948 23.5104 61.6201 25.4627C62.4568 24.9979 64.4091 24.626 65.6177 24.533C66.8265 24.44 67.1005 24.1659 67.6487 23.6176L67.663 23.6034C69.1505 22.0229 70.359 21.5581 72.1254 21.2792C73.5385 21.056 78.3542 21.1862 80.5855 21.2792C79.7488 20.7524 76.6808 19.6801 71.1028 19.6058Z" fill="#1C1C1C"/>
<path d="M85.6902 19.2498L85.6064 19.2339C85.6345 19.239 85.6625 19.2444 85.6902 19.2498L106.617 23.2315H92.3931C91.7423 23.2315 90.8126 23.4174 90.0689 24.719C90.0996 23.1814 89.2638 19.9535 85.6902 19.2498Z" fill="#1C1C1C"/>
<path fill-rule="evenodd" clip-rule="evenodd" d="M50.8649 17.5366C50.5159 17.3795 50.1287 17.292 49.721 17.292C48.1807 17.292 46.932 18.5407 46.932 20.081C46.932 21.6214 48.1807 22.8701 49.721 22.8701C50.3058 22.8701 50.8485 22.6901 51.2968 22.3826C50.6836 23.0745 49.7883 23.5105 48.7912 23.5105C46.9428 23.5105 45.4443 22.0121 45.4443 20.1637C45.4443 18.3153 46.9428 16.8169 48.7912 16.8169C49.5744 16.8169 50.2948 17.0859 50.8649 17.5366Z" fill="#1C1C1C"/>
<path fill-rule="evenodd" clip-rule="evenodd" d="M45.3982 17.4789C44.8404 17.0631 44.1487 16.8169 43.3996 16.8169C41.5512 16.8169 40.0527 18.3153 40.0527 20.1637C40.0527 22.0121 41.5512 23.5105 43.3996 23.5105C44.1488 23.5105 44.8405 23.2644 45.3982 22.8485C45.3121 22.7575 45.2303 22.6624 45.1531 22.5636C44.8426 22.6944 44.5013 22.7667 44.1432 22.7667C42.7055 22.7667 41.5401 21.6013 41.5401 20.1636C41.5401 18.726 42.7055 17.5606 44.1432 17.5606C44.5013 17.5606 44.8426 17.6329 45.1531 17.7637C45.2302 17.6649 45.312 17.5698 45.3982 17.4789Z" fill="#1C1C1C"/>
<path d="M66.4672 42.387C65.5354 42.387 64.7458 42.2705 64.0987 42.0376C63.4516 41.7916 62.9339 41.4487 62.5456 41.0086C62.1702 40.5556 61.9178 40.0185 61.7884 39.3972C61.659 38.763 61.646 38.0641 61.7496 37.3005C61.7625 37.1969 61.7755 37.0934 61.7884 36.9899C61.8143 36.8863 61.8337 36.7892 61.8467 36.6986H59.3422L58.255 41.7075C58.2421 41.8499 58.1774 41.9664 58.0609 42.057C57.9573 42.1476 57.8344 42.1929 57.692 42.1929H55.5759C55.4335 42.1929 55.3235 42.1476 55.2458 42.057C55.1811 41.9664 55.1617 41.8499 55.1876 41.7075L57.8667 29.0883C57.8926 28.9459 57.9573 28.8294 58.0609 28.7388C58.1774 28.6482 58.3068 28.6029 58.4492 28.6029H60.5653C60.7077 28.6029 60.8112 28.6482 60.8759 28.7388C60.9536 28.8294 60.9795 28.9459 60.9536 29.0883L59.9247 33.9418H62.4485C62.4744 33.8642 62.4938 33.78 62.5067 33.6894C62.5326 33.5859 62.565 33.4888 62.6038 33.3982C62.8886 32.4275 63.3351 31.5733 63.9434 30.8356C64.5517 30.0849 65.3153 29.496 66.2343 29.0689C67.1662 28.6288 68.2404 28.4088 69.457 28.4088C70.4148 28.4088 71.2173 28.5382 71.8644 28.7971C72.5245 29.0559 73.0422 29.4248 73.4175 29.9037C73.8058 30.3826 74.0517 30.952 74.1553 31.6121C74.2718 32.2593 74.2653 32.9711 74.1359 33.7477C74.0323 34.3172 73.9223 34.8802 73.8058 35.4367C73.6893 35.9803 73.5599 36.5304 73.4175 37.0869C73.1587 38.1482 72.7186 39.0801 72.0974 39.8826C71.4891 40.6721 70.7125 41.2869 69.7677 41.7269C68.8358 42.167 67.7356 42.387 66.4672 42.387ZM67.0108 39.8826C67.7745 39.8826 68.441 39.6626 69.0105 39.2225C69.5929 38.7824 70.0071 38.0512 70.253 37.0287C70.3954 36.4592 70.5183 35.9156 70.6219 35.3979C70.7384 34.8672 70.8484 34.3236 70.9519 33.7671C71.0684 33.0941 71.0555 32.5505 70.9131 32.1363C70.7837 31.7092 70.5442 31.3986 70.1948 31.2044C69.8453 31.0103 69.4182 30.9132 68.9134 30.9132C68.4216 30.9132 67.9557 31.0103 67.5156 31.2044C67.0885 31.3986 66.7132 31.7092 66.3896 32.1363C66.079 32.5505 65.8395 33.0941 65.6713 33.7671C65.5418 34.3236 65.4189 34.8672 65.3024 35.3979C65.1859 35.9156 65.0759 36.4592 64.9723 37.0287C64.8559 37.7017 64.8623 38.2518 64.9918 38.6789C65.1341 39.0931 65.38 39.3972 65.7295 39.5914C66.079 39.7855 66.5061 39.8826 67.0108 39.8826ZM75.2555 42.1929C75.1131 42.1929 75.0031 42.1476 74.9255 42.057C74.8608 41.9664 74.8413 41.8499 74.8672 41.7075L77.5464 29.0883C77.5723 28.9459 77.637 28.8294 77.7405 28.7388C77.857 28.6482 77.9864 28.6029 78.1288 28.6029H86.2634C86.4057 28.6029 86.5157 28.6482 86.5934 28.7388C86.6711 28.8294 86.6905 28.9459 86.6516 29.0883L86.3022 30.7385C86.2763 30.8679 86.2051 30.9779 86.0886 31.0685C85.9851 31.1591 85.8621 31.2044 85.7198 31.2044H80.1867L77.9347 41.7075C77.9088 41.8499 77.8441 41.9664 77.7405 42.057C77.637 42.1476 77.514 42.1929 77.3717 42.1929H75.2555Z" fill="#E91200"/>
<path d="M86.2194 42.1929C86.077 42.1929 85.967 42.1476 85.8893 42.057C85.8117 41.9664 85.7858 41.8499 85.8117 41.7075L88.4908 29.0883C88.5167 28.9459 88.5879 28.8294 88.7044 28.7388C88.8209 28.6482 88.9503 28.6029 89.0927 28.6029H90.8982C91.0923 28.6029 91.2282 28.6547 91.3059 28.7582C91.3836 28.8618 91.4353 28.9394 91.4612 28.9912L93.655 35.5726L98.6445 28.9912C98.6833 28.9394 98.761 28.8618 98.8774 28.7582C98.9939 28.6547 99.1492 28.6029 99.3434 28.6029H101.149C101.291 28.6029 101.395 28.6482 101.46 28.7388C101.537 28.8294 101.563 28.9459 101.537 29.0883L98.858 41.7075C98.8321 41.8499 98.761 41.9664 98.6445 42.057C98.5409 42.1476 98.418 42.1929 98.2756 42.1929H96.2954C96.1659 42.1929 96.0624 42.1476 95.9847 42.057C95.9071 41.9664 95.8812 41.8499 95.9071 41.7075L97.5573 34.0195L94.1986 38.4848C94.108 38.6012 93.998 38.7048 93.8686 38.7954C93.7521 38.886 93.6097 38.9313 93.4415 38.9313H92.5484C92.3672 38.9313 92.2378 38.886 92.1601 38.7954C92.0825 38.7048 92.0242 38.6012 91.9854 38.4848L90.4323 33.7671L88.7626 41.7075C88.7368 41.8499 88.6656 41.9664 88.5491 42.057C88.4455 42.1476 88.3291 42.1929 88.1996 42.1929H86.2194ZM107.251 42.387C106.449 42.387 105.704 42.277 105.018 42.057C104.345 41.8369 103.776 41.5069 103.31 41.0668C102.857 40.6268 102.533 40.0767 102.339 39.4166C102.158 38.7566 102.145 37.98 102.3 37.0869C102.391 36.5304 102.495 35.9803 102.611 35.4367C102.74 34.8802 102.87 34.3172 102.999 33.7477C103.426 32.0004 104.19 30.6738 105.29 29.7678C106.403 28.8618 107.872 28.4088 109.697 28.4088C110.5 28.4088 111.237 28.5253 111.91 28.7582C112.583 28.9783 113.153 29.3148 113.619 29.7678C114.085 30.2208 114.408 30.7773 114.59 31.4374C114.784 32.0975 114.803 32.8676 114.648 33.7477C114.544 34.3172 114.434 34.8802 114.318 35.4367C114.201 35.9803 114.072 36.5304 113.93 37.0869C113.489 38.873 112.719 40.2062 111.619 41.0863C110.519 41.9534 109.063 42.387 107.251 42.387ZM107.465 39.8826C108.241 39.8826 108.927 39.6561 109.522 39.2031C110.118 38.7371 110.532 37.9994 110.765 36.9899C110.907 36.4204 111.03 35.8897 111.134 35.3979C111.25 34.8931 111.354 34.3625 111.445 33.8059C111.639 32.7964 111.555 32.0651 111.192 31.6121C110.843 31.1462 110.273 30.9132 109.484 30.9132C108.694 30.9132 108.008 31.1462 107.426 31.6121C106.843 32.0651 106.429 32.7964 106.183 33.8059C106.041 34.3625 105.918 34.8931 105.814 35.3979C105.711 35.8897 105.607 36.4204 105.504 36.9899C105.323 37.9994 105.4 38.7371 105.737 39.2031C106.086 39.6561 106.662 39.8826 107.465 39.8826ZM118.727 42.1929C118.598 42.1929 118.494 42.1476 118.417 42.057C118.339 41.9664 118.313 41.8499 118.339 41.7075L120.572 31.3015H117.038C116.909 31.3015 116.805 31.2562 116.728 31.1656C116.65 31.075 116.624 30.965 116.65 30.8356L117.019 29.0883C117.045 28.9459 117.109 28.8294 117.213 28.7388C117.329 28.6482 117.459 28.6029 117.601 28.6029H127.774C127.917 28.6029 128.02 28.6482 128.085 28.7388C128.163 28.8294 128.188 28.9459 128.163 29.0883L127.774 30.8356C127.748 30.965 127.684 31.075 127.58 31.1656C127.477 31.2562 127.354 31.3015 127.211 31.3015H123.697L121.465 41.7075C121.439 41.8499 121.368 41.9664 121.251 42.057C121.148 42.1476 121.025 42.1929 120.882 42.1929H118.727ZM132.827 42.387C132.025 42.387 131.28 42.277 130.594 42.057C129.921 41.8369 129.352 41.5069 128.886 41.0668C128.433 40.6268 128.109 40.0767 127.915 39.4166C127.734 38.7566 127.721 37.98 127.876 37.0869C127.967 36.5304 128.07 35.9803 128.187 35.4367C128.316 34.8802 128.446 34.3172 128.575 33.7477C129.002 32.0004 129.766 30.6738 130.866 29.7678C131.979 28.8618 133.448 28.4088 135.273 28.4088C136.076 28.4088 136.813 28.5253 137.486 28.7582C138.159 28.9783 138.729 29.3148 139.195 29.7678C139.661 30.2208 139.984 30.7773 140.166 31.4374C140.36 32.0975 140.379 32.8676 140.224 33.7477C140.12 34.3172 140.01 34.8802 139.894 35.4367C139.777 35.9803 139.648 36.5304 139.505 37.0869C139.065 38.873 138.295 40.2062 137.195 41.0863C136.095 41.9534 134.639 42.387 132.827 42.387ZM133.041 39.8826C133.817 39.8826 134.503 39.6561 135.098 39.2031C135.694 38.7371 136.108 37.9994 136.341 36.9899C136.483 36.4204 136.606 35.8897 136.71 35.3979C136.826 34.8931 136.93 34.3625 137.02 33.8059C137.215 32.7964 137.13 32.0651 136.768 31.6121C136.419 31.1462 135.849 30.9132 135.06 30.9132C134.27 30.9132 133.584 31.1462 133.002 31.6121C132.419 32.0651 132.005 32.7964 131.759 33.8059C131.617 34.3625 131.494 34.8931 131.39 35.3979C131.287 35.8897 131.183 36.4204 131.08 36.9899C130.898 37.9994 130.976 38.7371 131.313 39.2031C131.662 39.6561 132.238 39.8826 133.041 39.8826ZM141.352 42.1929C141.223 42.1929 141.119 42.1476 141.042 42.057C140.964 41.9664 140.938 41.8499 140.964 41.7075L143.643 29.0883C143.669 28.9459 143.74 28.8294 143.857 28.7388C143.973 28.6482 144.096 28.6029 144.226 28.6029H149.293C150.069 28.6029 150.768 28.6935 151.389 28.8747C152.011 29.0559 152.522 29.3342 152.923 29.7095C153.337 30.0719 153.622 30.5314 153.777 31.0879C153.933 31.6315 153.933 32.2657 153.777 32.9905C153.467 34.466 152.82 35.5597 151.836 36.2715C150.865 36.9704 149.571 37.3199 147.953 37.3199H145.08L144.148 41.7075C144.122 41.8499 144.051 41.9664 143.934 42.057C143.831 42.1476 143.708 42.1929 143.565 42.1929H141.352ZM145.546 34.9125H148.05C148.671 34.9125 149.215 34.7508 149.681 34.4272C150.16 34.1036 150.47 33.6183 150.613 32.9711C150.69 32.5828 150.703 32.2463 150.652 31.9616C150.613 31.6639 150.464 31.4374 150.205 31.2821C149.946 31.1138 149.539 31.0297 148.982 31.0297H146.381L145.546 34.9125ZM159.465 42.387C158.585 42.387 157.802 42.277 157.116 42.057C156.43 41.824 155.867 41.481 155.427 41.028C154.987 40.575 154.683 40.025 154.514 39.3778C154.346 38.7177 154.333 37.967 154.476 37.1258C154.566 36.5951 154.676 36.0256 154.806 35.4173C154.948 34.809 155.084 34.2266 155.213 33.67C155.498 32.557 155.925 31.6121 156.495 30.8356C157.077 30.046 157.815 29.4442 158.708 29.03C159.614 28.6159 160.682 28.4088 161.911 28.4088C162.753 28.4088 163.516 28.5188 164.202 28.7388C164.901 28.9459 165.483 29.2565 165.949 29.6707C166.428 30.0719 166.765 30.5573 166.959 31.1268C167.166 31.6833 167.205 32.311 167.075 33.01C167.063 33.1264 167.011 33.2235 166.92 33.3012C166.842 33.3788 166.745 33.4176 166.629 33.4176H164.377C164.222 33.4176 164.099 33.3788 164.008 33.3012C163.93 33.2235 163.885 33.0941 163.872 32.9129C163.911 32.1751 163.723 31.6574 163.309 31.3597C162.908 31.0621 162.371 30.9132 161.698 30.9132C160.895 30.9132 160.203 31.1332 159.62 31.5733C159.038 32.0134 158.624 32.7446 158.378 33.7671C158.106 34.8284 157.873 35.9156 157.679 37.0287C157.498 38.0512 157.588 38.7824 157.951 39.2225C158.313 39.6626 158.889 39.8826 159.679 39.8826C160.352 39.8826 160.954 39.7402 161.484 39.4555C162.028 39.1578 162.468 38.6336 162.804 37.8829C162.908 37.6888 163.005 37.5593 163.096 37.4946C163.199 37.417 163.329 37.3781 163.484 37.3781H165.716C165.833 37.3781 165.924 37.417 165.988 37.4946C166.066 37.5723 166.092 37.6694 166.066 37.7858C165.885 38.4589 165.613 39.0801 165.251 39.6496C164.888 40.2062 164.429 40.6915 163.872 41.1057C163.329 41.5198 162.688 41.8369 161.95 42.057C161.225 42.277 160.397 42.387 159.465 42.387Z" fill="#1C1C1C"/>
<path d="M1.25013 57.2273C1.16369 57.2273 1.10606 57.1913 1.07725 57.1192C1.04123 57.0472 1.04483 56.9752 1.08805 56.9031L5.12917 49.9554C5.17239 49.8762 5.23002 49.8078 5.30205 49.7501C5.37408 49.6925 5.47133 49.6637 5.59379 49.6637H7.04168C7.15693 49.6637 7.23977 49.6925 7.29019 49.7501C7.34062 49.8078 7.36943 49.8762 7.37663 49.9554L8.47876 56.9031C8.49316 57.004 8.47516 57.0832 8.42473 57.1409C8.37431 57.1985 8.30948 57.2273 8.23024 57.2273H7.12812C7.02007 57.2273 6.94443 57.2021 6.90121 57.1517C6.85799 57.1012 6.82918 57.0436 6.81477 56.9788L6.59867 55.801H3.55162L2.82768 57.0112C2.79166 57.0616 2.74484 57.112 2.68721 57.1625C2.62958 57.2057 2.55034 57.2273 2.4495 57.2273H1.25013ZM4.25395 54.4072H6.49061L6.02599 51.2953L4.25395 54.4072ZM9.60257 57.2273C9.53054 57.2273 9.47291 57.2021 9.42969 57.1517C9.38647 57.1012 9.37207 57.0364 9.38647 56.9572L10.8776 49.9338C10.892 49.8546 10.9316 49.7898 10.9964 49.7393C11.0613 49.6889 11.1297 49.6637 11.2017 49.6637H14.3028C14.8647 49.6637 15.3257 49.7501 15.6859 49.923C16.0532 50.0959 16.3126 50.3408 16.4638 50.6578C16.6223 50.9747 16.6547 51.3457 16.5611 51.7707C16.5034 52.0516 16.4026 52.293 16.2585 52.4946C16.1217 52.6963 15.9704 52.862 15.8047 52.9917C15.639 53.1141 15.4842 53.2042 15.3401 53.2618C15.5922 53.4059 15.7939 53.6256 15.9452 53.9209C16.0965 54.2091 16.1289 54.5584 16.0424 54.969C15.9416 55.4228 15.7687 55.819 15.5238 56.1576C15.2861 56.4961 14.9619 56.7591 14.5513 56.9464C14.1407 57.1337 13.6329 57.2273 13.0278 57.2273H9.60257ZM11.3206 55.9631H12.9738C13.3123 55.9631 13.5969 55.8658 13.8274 55.6714C14.0579 55.4697 14.202 55.2319 14.2596 54.9582C14.3244 54.6773 14.292 54.4432 14.1623 54.2559C14.0399 54.0614 13.7878 53.9641 13.406 53.9641H11.742L11.3206 55.9631ZM12.0013 52.7216H13.5356C13.867 52.7216 14.1407 52.6387 14.3568 52.473C14.5729 52.3002 14.7134 52.0805 14.7782 51.8139C14.8359 51.5474 14.8034 51.3349 14.681 51.1764C14.5585 51.0107 14.3316 50.9279 14.0003 50.9279H12.3903L12.0013 52.7216ZM18.7684 57.2273C18.6964 57.2273 18.6388 57.2021 18.5956 57.1517C18.5523 57.1012 18.5379 57.0364 18.5523 56.9572L19.7949 51.1656H17.8284C17.7564 51.1656 17.6987 51.1404 17.6555 51.09C17.6123 51.0396 17.5979 50.9783 17.6123 50.9063L17.8176 49.9338C17.832 49.8546 17.868 49.7898 17.9256 49.7393C17.9905 49.6889 18.0625 49.6637 18.1417 49.6637H23.8036C23.8829 49.6637 23.9405 49.6889 23.9765 49.7393C24.0197 49.7898 24.0341 49.8546 24.0197 49.9338L23.8036 50.9063C23.7892 50.9783 23.7532 51.0396 23.6956 51.09C23.638 51.1404 23.5695 51.1656 23.4903 51.1656H21.5346L20.292 56.9572C20.2776 57.0364 20.2379 57.1012 20.1731 57.1517C20.1155 57.2021 20.0471 57.2273 19.9678 57.2273H18.7684ZM26.6158 57.3353C26.1691 57.3353 25.7549 57.2741 25.3732 57.1517C24.9986 57.0292 24.6816 56.8455 24.4223 56.6006C24.1702 56.3557 23.9901 56.0495 23.8821 55.6822C23.7812 55.3148 23.774 54.8826 23.8604 54.3855C23.9109 54.0758 23.9685 53.7697 24.0333 53.4671C24.1054 53.1574 24.1774 52.844 24.2494 52.5271C24.4871 51.5546 24.9121 50.8163 25.5244 50.312C26.1439 49.8078 26.9615 49.5557 27.9772 49.5557C28.4238 49.5557 28.8344 49.6205 29.209 49.7501C29.5836 49.8726 29.9005 50.0599 30.1598 50.312C30.4192 50.5641 30.5992 50.8739 30.7001 51.2413C30.8081 51.6086 30.8189 52.0372 30.7325 52.5271C30.6749 52.844 30.6136 53.1574 30.5488 53.4671C30.484 53.7697 30.412 54.0758 30.3327 54.3855C30.0878 55.3796 29.6592 56.1216 29.0469 56.6114C28.4346 57.094 27.6242 57.3353 26.6158 57.3353ZM26.7346 55.9415C27.1668 55.9415 27.5486 55.8154 27.88 55.5633C28.2113 55.304 28.4418 54.8934 28.5715 54.3315C28.6507 54.0146 28.7192 53.7192 28.7768 53.4455C28.8416 53.1646 28.8992 52.8692 28.9497 52.5595C29.0577 51.9976 29.0109 51.5906 28.8092 51.3385C28.6147 51.0792 28.2978 50.9495 27.8583 50.9495C27.4189 50.9495 27.0372 51.0792 26.713 51.3385C26.3888 51.5906 26.1583 51.9976 26.0215 52.5595C25.9422 52.8692 25.8738 53.1646 25.8162 53.4455C25.7585 53.7192 25.7009 54.0146 25.6433 54.3315C25.5424 54.8934 25.5857 55.304 25.773 55.5633C25.9674 55.8154 26.288 55.9415 26.7346 55.9415ZM34.2239 57.3353C33.7341 57.3353 33.2983 57.2741 32.9165 57.1517C32.5347 57.022 32.2214 56.8311 31.9764 56.579C31.7315 56.3269 31.5622 56.0207 31.4686 55.6606C31.375 55.2932 31.3678 54.8754 31.447 54.4072C31.4974 54.1118 31.5586 53.7949 31.6307 53.4563C31.7099 53.1177 31.7856 52.7936 31.8576 52.4838C32.0161 51.8644 32.2538 51.3385 32.5707 50.9063C32.8949 50.4669 33.3055 50.1319 33.8025 49.9014C34.3068 49.6709 34.901 49.5557 35.5854 49.5557C36.0536 49.5557 36.4786 49.6169 36.8604 49.7393C37.2493 49.8546 37.5735 50.0275 37.8328 50.258C38.0994 50.4813 38.2866 50.7514 38.3947 51.0684C38.5099 51.3781 38.5316 51.7275 38.4595 52.1165C38.4523 52.1813 38.4235 52.2353 38.3731 52.2785C38.3299 52.3218 38.2758 52.3434 38.211 52.3434H36.9576C36.8712 52.3434 36.8027 52.3218 36.7523 52.2785C36.7091 52.2353 36.6839 52.1633 36.6767 52.0624C36.6983 51.6518 36.5938 51.3637 36.3633 51.198C36.14 51.0324 35.8411 50.9495 35.4665 50.9495C35.0199 50.9495 34.6345 51.072 34.3104 51.3169C33.9862 51.5618 33.7557 51.9688 33.6188 52.5379C33.4676 53.1286 33.3379 53.7336 33.2298 54.3531C33.129 54.9222 33.1794 55.3292 33.3811 55.5741C33.5828 55.819 33.9034 55.9415 34.3428 55.9415C34.7173 55.9415 35.0523 55.8622 35.3476 55.7038C35.6502 55.5381 35.8951 55.2464 36.0824 54.8286C36.14 54.7205 36.194 54.6485 36.2445 54.6125C36.3021 54.5692 36.3741 54.5476 36.4606 54.5476H37.7032C37.768 54.5476 37.8184 54.5692 37.8544 54.6125C37.8977 54.6557 37.9121 54.7097 37.8977 54.7745C37.7968 55.1491 37.6455 55.4949 37.4438 55.8118C37.2421 56.1216 36.9864 56.3917 36.6767 56.6222C36.3741 56.8527 36.0176 57.0292 35.607 57.1517C35.2036 57.2741 34.7426 57.3353 34.2239 57.3353ZM38.8418 57.2273C38.7698 57.2273 38.7122 57.2021 38.669 57.1517C38.6257 57.1012 38.6113 57.0364 38.6257 56.9572L40.1168 49.9338C40.1313 49.8546 40.1709 49.7898 40.2357 49.7393C40.3005 49.6889 40.369 49.6637 40.441 49.6637H45.3357C45.415 49.6637 45.4726 49.6889 45.5086 49.7393C45.5518 49.7898 45.5662 49.8546 45.5518 49.9338L45.3681 50.7982C45.3537 50.8703 45.3141 50.9315 45.2493 50.9819C45.1917 51.0324 45.1232 51.0576 45.044 51.0576H41.5431L41.1757 52.754H44.4389C44.5181 52.754 44.5758 52.7792 44.6118 52.8296C44.655 52.88 44.6694 52.9449 44.655 53.0241L44.4821 53.8237C44.4677 53.8957 44.4281 53.9569 44.3633 54.0074C44.3056 54.0578 44.2372 54.083 44.158 54.083H40.9056L40.5274 55.8334H44.1147C44.194 55.8334 44.2516 55.8586 44.2876 55.9091C44.3308 55.9595 44.3452 56.0243 44.3308 56.1036L44.1472 56.9572C44.1327 57.0364 44.0931 57.1012 44.0283 57.1517C43.9707 57.2021 43.9022 57.2273 43.823 57.2273H38.8418ZM45.6372 57.2273C45.5652 57.2273 45.5076 57.2021 45.4644 57.1517C45.4211 57.1012 45.4067 57.0364 45.4211 56.9572L46.9123 49.9338C46.9267 49.8546 46.9663 49.7898 47.0311 49.7393C47.0959 49.6889 47.1644 49.6637 47.2364 49.6637H50.0565C50.4888 49.6637 50.8777 49.7141 51.2235 49.815C51.5693 49.9158 51.8538 50.0707 52.0771 50.2796C52.3076 50.4813 52.4661 50.737 52.5525 51.0468C52.639 51.3493 52.639 51.7023 52.5525 52.1057C52.3796 52.9269 52.0195 53.5355 51.472 53.9317C50.9318 54.3207 50.2114 54.5152 49.311 54.5152H47.7118L47.1932 56.9572C47.1788 57.0364 47.1392 57.1012 47.0743 57.1517C47.0167 57.2021 46.9483 57.2273 46.869 57.2273H45.6372ZM47.9712 53.1754H49.365C49.7108 53.1754 50.0133 53.0853 50.2726 52.9052C50.5392 52.7252 50.7121 52.455 50.7913 52.0949C50.8345 51.8788 50.8417 51.6915 50.8129 51.533C50.7913 51.3673 50.7085 51.2413 50.5644 51.1548C50.4203 51.0612 50.1934 51.0143 49.8837 51.0143H48.4358L47.9712 53.1754ZM52.8547 57.2273C52.7827 57.2273 52.7251 57.2021 52.6819 57.1517C52.6386 57.1012 52.6242 57.0364 52.6386 56.9572L54.1297 49.9338C54.1441 49.8546 54.1838 49.7898 54.2486 49.7393C54.3134 49.6889 54.3819 49.6637 54.4539 49.6637H57.555C58.1168 49.6637 58.5779 49.7501 58.938 49.923C59.3054 50.0959 59.5647 50.3408 59.716 50.6578C59.8745 50.9747 59.9069 51.3457 59.8132 51.7707C59.7556 52.0516 59.6548 52.293 59.5107 52.4946C59.3738 52.6963 59.2226 52.862 59.0569 52.9917C58.8912 53.1141 58.7363 53.2042 58.5923 53.2618C58.8444 53.4059 59.0461 53.6256 59.1973 53.9209C59.3486 54.2091 59.381 54.5584 59.2946 54.969C59.1937 55.4228 59.0209 55.819 58.7759 56.1576C58.5382 56.4961 58.2141 56.7591 57.8035 56.9464C57.3929 57.1337 56.885 57.2273 56.28 57.2273H52.8547ZM54.5728 55.9631H56.2259C56.5645 55.9631 56.849 55.8658 57.0795 55.6714C57.3101 55.4697 57.4541 55.2319 57.5117 54.9582C57.5766 54.6773 57.5442 54.4432 57.4145 54.2559C57.292 54.0614 57.0399 53.9641 56.6581 53.9641H54.9942L54.5728 55.9631ZM55.2535 52.7216H56.7878C57.1192 52.7216 57.3929 52.6387 57.609 52.473C57.8251 52.3002 57.9656 52.0805 58.0304 51.8139C58.088 51.5474 58.0556 51.3349 57.9331 51.1764C57.8107 51.0107 57.5838 50.9279 57.2524 50.9279H55.6425L55.2535 52.7216ZM60.3782 57.2273C60.3062 57.2273 60.2486 57.2021 60.2053 57.1517C60.1621 57.094 60.1477 57.0292 60.1621 56.9572L61.664 49.9338C61.6784 49.8546 61.7145 49.7898 61.7721 49.7393C61.8369 49.6889 61.909 49.6637 61.9882 49.6637H63.1659C63.238 49.6637 63.2956 49.6889 63.3388 49.7393C63.3821 49.7898 63.3965 49.8546 63.3821 49.9338L62.3772 54.6341L66.7208 49.8582C66.7569 49.8078 66.8037 49.7646 66.8613 49.7285C66.9261 49.6853 67.0018 49.6637 67.0882 49.6637H68.1579C68.23 49.6637 68.2876 49.6889 68.3308 49.7393C68.374 49.7898 68.3884 49.8546 68.374 49.9338L66.8721 56.9572C66.8577 57.0364 66.8181 57.1012 66.7533 57.1517C66.6956 57.2021 66.6308 57.2273 66.5588 57.2273H65.381C65.3018 57.2273 65.2405 57.2021 65.1973 57.1517C65.1541 57.1012 65.1397 57.0364 65.1541 56.9572L66.1266 52.3974L61.8261 57.0328C61.7973 57.076 61.7505 57.1192 61.6856 57.1625C61.628 57.2057 61.5488 57.2273 61.4479 57.2273H60.3782ZM71.5459 57.3353C71.0561 57.3353 70.6203 57.2741 70.2385 57.1517C69.8567 57.022 69.5434 56.8311 69.2984 56.579C69.0535 56.3269 68.8843 56.0207 68.7906 55.6606C68.697 55.2932 68.6898 54.8754 68.769 54.4072C68.8194 54.1118 68.8807 53.7949 68.9527 53.4563C69.0319 53.1177 69.1076 52.7936 69.1796 52.4838C69.3381 51.8644 69.5758 51.3385 69.8927 50.9063C70.2169 50.4669 70.6275 50.1319 71.1245 49.9014C71.6288 49.6709 72.223 49.5557 72.9074 49.5557C73.3756 49.5557 73.8006 49.6169 74.1824 49.7393C74.5714 49.8546 74.8955 50.0275 75.1548 50.258C75.4214 50.4813 75.6086 50.7514 75.7167 51.0684C75.8319 51.3781 75.8536 51.7275 75.7815 52.1165C75.7743 52.1813 75.7455 52.2353 75.6951 52.2785C75.6519 52.3218 75.5978 52.3434 75.533 52.3434H74.2796C74.1932 52.3434 74.1247 52.3218 74.0743 52.2785C74.0311 52.2353 74.0059 52.1633 73.9987 52.0624C74.0203 51.6518 73.9158 51.3637 73.6853 51.198C73.462 51.0324 73.1631 50.9495 72.7885 50.9495C72.3419 50.9495 71.9565 51.072 71.6324 51.3169C71.3082 51.5618 71.0777 51.9688 70.9408 52.5379C70.7896 53.1286 70.6599 53.7336 70.5518 54.3531C70.451 54.9222 70.5014 55.3292 70.7031 55.5741C70.9048 55.819 71.2254 55.9415 71.6648 55.9415C72.0393 55.9415 72.3743 55.8622 72.6696 55.7038C72.9722 55.5381 73.2171 55.2464 73.4044 54.8286C73.462 54.7205 73.516 54.6485 73.5665 54.6125C73.6241 54.5692 73.6961 54.5476 73.7826 54.5476H75.0252C75.09 54.5476 75.1404 54.5692 75.1764 54.6125C75.2197 54.6557 75.2341 54.7097 75.2197 54.7745C75.1188 55.1491 74.9675 55.4949 74.7658 55.8118C74.5641 56.1216 74.3084 56.3917 73.9987 56.6222C73.6961 56.8527 73.3396 57.0292 72.929 57.1517C72.5256 57.2741 72.0646 57.3353 71.5459 57.3353ZM80.2332 57.2273C80.1611 57.2273 80.1035 57.2021 80.0603 57.1517C80.0171 57.1012 80.0026 57.0364 80.0171 56.9572L81.2596 51.1656H79.2931C79.2211 51.1656 79.1634 51.1404 79.1202 51.09C79.077 51.0396 79.0626 50.9783 79.077 50.9063L79.2823 49.9338C79.2967 49.8546 79.3327 49.7898 79.3904 49.7393C79.4552 49.6889 79.5272 49.6637 79.6065 49.6637H85.2683C85.3476 49.6637 85.4052 49.6889 85.4412 49.7393C85.4844 49.7898 85.4989 49.8546 85.4844 49.9338L85.2683 50.9063C85.2539 50.9783 85.2179 51.0396 85.1603 51.09C85.1027 51.1404 85.0342 51.1656 84.955 51.1656H82.9993L81.7567 56.9572C81.7423 57.0364 81.7027 57.1012 81.6378 57.1517C81.5802 57.2021 81.5118 57.2273 81.4325 57.2273H80.2332ZM88.0805 57.3353C87.6338 57.3353 87.2197 57.2741 86.8379 57.1517C86.4633 57.0292 86.1463 56.8455 85.887 56.6006C85.6349 56.3557 85.4548 56.0495 85.3468 55.6822C85.2459 55.3148 85.2387 54.8826 85.3252 54.3855C85.3756 54.0758 85.4332 53.7697 85.498 53.4671C85.5701 53.1574 85.6421 52.844 85.7141 52.5271C85.9518 51.5546 86.3769 50.8163 86.9891 50.312C87.6086 49.8078 88.4262 49.5557 89.4419 49.5557C89.8885 49.5557 90.2991 49.6205 90.6737 49.7501C91.0483 49.8726 91.3652 50.0599 91.6245 50.312C91.8839 50.5641 92.0639 50.8739 92.1648 51.2413C92.2728 51.6086 92.2837 52.0372 92.1972 52.5271C92.1396 52.844 92.0784 53.1574 92.0135 53.4671C91.9487 53.7697 91.8767 54.0758 91.7974 54.3855C91.5525 55.3796 91.1239 56.1216 90.5116 56.6114C89.8993 57.094 89.0889 57.3353 88.0805 57.3353ZM88.1993 55.9415C88.6315 55.9415 89.0133 55.8154 89.3447 55.5633C89.676 55.304 89.9065 54.8934 90.0362 54.3315C90.1154 54.0146 90.1839 53.7192 90.2415 53.4455C90.3063 53.1646 90.3639 52.8692 90.4144 52.5595C90.5224 51.9976 90.4756 51.5906 90.2739 51.3385C90.0794 51.0792 89.7625 50.9495 89.323 50.9495C88.8836 50.9495 88.5019 51.0792 88.1777 51.3385C87.8536 51.5906 87.623 51.9976 87.4862 52.5595C87.4069 52.8692 87.3385 53.1646 87.2809 53.4455C87.2233 53.7192 87.1656 54.0146 87.108 54.3315C87.0071 54.8934 87.0504 55.304 87.2377 55.5633C87.4322 55.8154 87.7527 55.9415 88.1993 55.9415ZM94.781 57.2273C94.709 57.2273 94.6513 57.2021 94.6081 57.1517C94.5649 57.1012 94.5505 57.0364 94.5649 56.9572L95.0727 54.58L93.5168 50.0095C93.488 49.923 93.4988 49.8438 93.5492 49.7718C93.6068 49.6997 93.6825 49.6637 93.7761 49.6637H94.8566C94.9503 49.6637 95.0187 49.6889 95.0619 49.7393C95.1123 49.7898 95.1448 49.8366 95.1592 49.8798L96.2073 52.8404L98.5196 49.8798C98.5484 49.8366 98.5952 49.7898 98.66 49.7393C98.7321 49.6889 98.8149 49.6637 98.9086 49.6637H100.173C100.281 49.6637 100.342 49.7033 100.356 49.7826C100.371 49.8618 100.349 49.9374 100.292 50.0095L96.7907 54.58L96.2829 56.9572C96.2685 57.0364 96.2289 57.1012 96.164 57.1517C96.1064 57.2021 96.038 57.2273 95.9588 57.2273H94.781ZM102.916 57.3353C102.47 57.3353 102.056 57.2741 101.674 57.1517C101.299 57.0292 100.982 56.8455 100.723 56.6006C100.471 56.3557 100.291 56.0495 100.183 55.6822C100.082 55.3148 100.075 54.8826 100.161 54.3855C100.212 54.0758 100.269 53.7697 100.334 53.4671C100.406 53.1574 100.478 52.844 100.55 52.5271C100.788 51.5546 101.213 50.8163 101.825 50.312C102.445 49.8078 103.262 49.5557 104.278 49.5557C104.724 49.5557 105.135 49.6205 105.51 49.7501C105.884 49.8726 106.201 50.0599 106.46 50.312C106.72 50.5641 106.9 50.8739 107.001 51.2413C107.109 51.6086 107.12 52.0372 107.033 52.5271C106.976 52.844 106.914 53.1574 106.849 53.4671C106.785 53.7697 106.713 54.0758 106.633 54.3855C106.388 55.3796 105.96 56.1216 105.348 56.6114C104.735 57.094 103.925 57.3353 102.916 57.3353ZM103.035 55.9415C103.467 55.9415 103.849 55.8154 104.181 55.5633C104.512 55.304 104.742 54.8934 104.872 54.3315C104.951 54.0146 105.02 53.7192 105.077 53.4455C105.142 53.1646 105.2 52.8692 105.25 52.5595C105.358 51.9976 105.312 51.5906 105.11 51.3385C104.915 51.0792 104.598 50.9495 104.159 50.9495C103.72 50.9495 103.338 51.0792 103.014 51.3385C102.689 51.5906 102.459 51.9976 102.322 52.5595C102.243 52.8692 102.174 53.1646 102.117 53.4455C102.059 53.7192 102.002 54.0146 101.944 54.3315C101.843 54.8934 101.886 55.304 102.074 55.5633C102.268 55.8154 102.589 55.9415 103.035 55.9415ZM109.304 57.2273C109.232 57.2273 109.174 57.2021 109.131 57.1517C109.087 57.1012 109.073 57.0364 109.087 56.9572L110.33 51.1656H108.364C108.292 51.1656 108.234 51.1404 108.191 51.09C108.147 51.0396 108.133 50.9783 108.147 50.9063L108.353 49.9338C108.367 49.8546 108.403 49.7898 108.461 49.7393C108.526 49.6889 108.598 49.6637 108.677 49.6637H114.339C114.418 49.6637 114.476 49.6889 114.512 49.7393C114.555 49.7898 114.569 49.8546 114.555 49.9338L114.339 50.9063C114.324 50.9783 114.288 51.0396 114.231 51.09C114.173 51.1404 114.105 51.1656 114.025 51.1656H112.07L110.827 56.9572C110.813 57.0364 110.773 57.1012 110.708 57.1517C110.651 57.2021 110.582 57.2273 110.503 57.2273H109.304ZM113.596 57.2273C113.51 57.2273 113.452 57.1913 113.423 57.1192C113.387 57.0472 113.391 56.9752 113.434 56.9031L117.475 49.9554C117.518 49.8762 117.576 49.8078 117.648 49.7501C117.72 49.6925 117.817 49.6637 117.94 49.6637H119.388C119.503 49.6637 119.586 49.6925 119.636 49.7501C119.686 49.8078 119.715 49.8762 119.723 49.9554L120.825 56.9031C120.839 57.004 120.821 57.0832 120.771 57.1409C120.72 57.1985 120.655 57.2273 120.576 57.2273H119.474C119.366 57.2273 119.29 57.2021 119.247 57.1517C119.204 57.1012 119.175 57.0436 119.161 56.9788L118.945 55.801H115.897L115.174 57.0112C115.138 57.0616 115.091 57.112 115.033 57.1625C114.975 57.2057 114.896 57.2273 114.795 57.2273H113.596ZM116.6 54.4072H118.836L118.372 51.2953L116.6 54.4072ZM124.375 57.2273C124.303 57.2273 124.246 57.2021 124.203 57.1517C124.159 57.094 124.145 57.0292 124.159 56.9572L125.661 49.9338C125.676 49.8546 125.712 49.7898 125.769 49.7393C125.834 49.6889 125.906 49.6637 125.985 49.6637H127.163C127.235 49.6637 127.293 49.6889 127.336 49.7393C127.379 49.7898 127.394 49.8546 127.379 49.9338L126.374 54.6341L130.718 49.8582C130.754 49.8078 130.801 49.7646 130.858 49.7285C130.923 49.6853 130.999 49.6637 131.085 49.6637H132.155C132.227 49.6637 132.285 49.6889 132.328 49.7393C132.371 49.7898 132.386 49.8546 132.371 49.9338L130.869 56.9572C130.855 57.0364 130.815 57.1012 130.75 57.1517C130.693 57.2021 130.628 57.2273 130.556 57.2273H129.378C129.299 57.2273 129.238 57.2021 129.194 57.1517C129.151 57.1012 129.137 57.0364 129.151 56.9572L130.124 52.3974L125.823 57.0328C125.794 57.076 125.748 57.1192 125.683 57.1625C125.625 57.2057 125.546 57.2273 125.445 57.2273H124.375ZM135.107 57.2273C135.035 57.2273 134.977 57.2021 134.934 57.1517C134.891 57.1012 134.876 57.0364 134.891 56.9572L136.392 49.9338C136.407 49.8546 136.443 49.7898 136.501 49.7393C136.565 49.6889 136.634 49.6637 136.706 49.6637H137.916C137.988 49.6637 138.046 49.6889 138.089 49.7393C138.132 49.7898 138.146 49.8546 138.132 49.9338L136.879 55.7794H140.228C140.308 55.7794 140.365 55.8046 140.401 55.855C140.444 55.9055 140.459 55.9703 140.444 56.0495L140.25 56.9572C140.235 57.0364 140.199 57.1012 140.142 57.1517C140.084 57.2021 140.016 57.2273 139.937 57.2273H135.107ZM141.406 57.2273C141.334 57.2273 141.276 57.2021 141.233 57.1517C141.19 57.1012 141.176 57.0364 141.19 56.9572L142.681 49.9338C142.696 49.8546 142.735 49.7898 142.8 49.7393C142.865 49.6889 142.933 49.6637 143.005 49.6637H147.9C147.979 49.6637 148.037 49.6889 148.073 49.7393C148.116 49.7898 148.131 49.8546 148.116 49.9338L147.932 50.7982C147.918 50.8703 147.878 50.9315 147.814 50.9819C147.756 51.0324 147.688 51.0576 147.608 51.0576H144.107L143.74 52.754H147.003C147.082 52.754 147.14 52.7792 147.176 52.8296C147.219 52.88 147.234 52.9449 147.219 53.0241L147.046 53.8237C147.032 53.8957 146.992 53.9569 146.928 54.0074C146.87 54.0578 146.801 54.083 146.722 54.083H143.47L143.092 55.8334H146.679C146.758 55.8334 146.816 55.8586 146.852 55.9091C146.895 55.9595 146.91 56.0243 146.895 56.1036L146.711 56.9572C146.697 57.0364 146.657 57.1012 146.593 57.1517C146.535 57.2021 146.467 57.2273 146.387 57.2273H141.406ZM147.542 57.2273C147.456 57.2273 147.395 57.1877 147.359 57.1084C147.323 57.022 147.337 56.9428 147.402 56.8707L150.654 53.3266L148.99 50.0095C148.947 49.9302 148.951 49.8546 149.001 49.7826C149.052 49.7033 149.124 49.6637 149.217 49.6637H150.395C150.525 49.6637 150.611 49.6925 150.654 49.7501C150.705 49.8006 150.737 49.8438 150.752 49.8798L151.854 52.0841L153.82 49.8798C153.856 49.8438 153.903 49.8006 153.961 49.7501C154.025 49.6925 154.123 49.6637 154.252 49.6637H155.549C155.643 49.6637 155.704 49.7069 155.733 49.7934C155.769 49.8726 155.754 49.9482 155.689 50.0203L152.599 53.5644L154.274 56.8923C154.31 56.9644 154.303 57.04 154.252 57.1192C154.209 57.1913 154.137 57.2273 154.036 57.2273H152.869C152.747 57.2273 152.66 57.2021 152.61 57.1517C152.56 57.094 152.527 57.0508 152.513 57.022L151.4 54.8394L149.379 57.022C149.358 57.0508 149.314 57.094 149.25 57.1517C149.185 57.2021 149.088 57.2273 148.958 57.2273H147.542ZM158.432 57.3353C157.971 57.3353 157.553 57.2777 157.178 57.1625C156.804 57.04 156.49 56.8563 156.238 56.6114C155.993 56.3665 155.828 56.0567 155.741 55.6822C155.655 55.3076 155.666 54.861 155.774 54.3423L156.714 49.9338C156.728 49.8546 156.764 49.7898 156.822 49.7393C156.886 49.6889 156.959 49.6637 157.038 49.6637H158.216C158.295 49.6637 158.352 49.6889 158.388 49.7393C158.432 49.7898 158.446 49.8546 158.432 49.9338L157.492 54.3315C157.376 54.8646 157.402 55.2608 157.567 55.5201C157.733 55.7794 158.061 55.9091 158.55 55.9091C159.033 55.9091 159.426 55.7794 159.728 55.5201C160.038 55.2608 160.247 54.8646 160.355 54.3315L161.295 49.9338C161.309 49.8546 161.349 49.7898 161.414 49.7393C161.479 49.6889 161.547 49.6637 161.619 49.6637H162.808C162.88 49.6637 162.934 49.6889 162.97 49.7393C163.013 49.7898 163.027 49.8546 163.013 49.9338L162.084 54.3423C161.86 55.3724 161.453 56.1288 160.863 56.6114C160.279 57.094 159.469 57.3353 158.432 57.3353ZM165.83 57.3353C165.139 57.3353 164.57 57.2381 164.123 57.0436C163.684 56.8419 163.367 56.579 163.172 56.2548C162.985 55.9235 162.92 55.5741 162.978 55.2067C162.985 55.1491 163.01 55.0987 163.054 55.0555C163.104 55.005 163.162 54.9798 163.226 54.9798H164.404C164.498 54.9798 164.566 55.0014 164.609 55.0447C164.653 55.0807 164.692 55.1275 164.728 55.1851C164.75 55.3076 164.804 55.4264 164.89 55.5417C164.984 55.6569 165.117 55.7542 165.29 55.8334C165.463 55.9055 165.683 55.9415 165.949 55.9415C166.425 55.9415 166.799 55.8658 167.073 55.7146C167.347 55.5633 167.512 55.358 167.57 55.0987C167.613 54.9114 167.584 54.7601 167.484 54.6449C167.383 54.5296 167.203 54.4252 166.943 54.3315C166.691 54.2379 166.356 54.137 165.938 54.029C165.42 53.9137 164.995 53.7552 164.663 53.5536C164.332 53.3447 164.102 53.0853 163.972 52.7756C163.849 52.4658 163.835 52.0949 163.929 51.6627C164.066 51.0143 164.411 50.5029 164.966 50.1283C165.521 49.7465 166.241 49.5557 167.127 49.5557C167.588 49.5557 167.991 49.6205 168.337 49.7501C168.69 49.8798 168.982 50.0491 169.212 50.258C169.45 50.4669 169.619 50.6902 169.72 50.9279C169.821 51.1656 169.854 51.3961 169.818 51.6194C169.81 51.6771 169.782 51.7311 169.731 51.7815C169.688 51.8247 169.634 51.8463 169.569 51.8463H168.337C168.265 51.8463 168.204 51.8319 168.154 51.8031C168.103 51.7743 168.063 51.7239 168.035 51.6518C168.035 51.4646 167.941 51.3025 167.754 51.1656C167.574 51.0216 167.329 50.9495 167.019 50.9495C166.666 50.9495 166.367 51.0143 166.122 51.144C165.877 51.2737 165.722 51.4718 165.658 51.7383C165.622 51.9112 165.643 52.0588 165.722 52.1813C165.809 52.2966 165.964 52.401 166.187 52.4946C166.418 52.5811 166.731 52.6783 167.127 52.7864C167.732 52.916 168.211 53.0817 168.564 53.2834C168.917 53.4851 169.155 53.7372 169.277 54.0398C169.407 54.3423 169.425 54.7097 169.331 55.1419C169.18 55.8622 168.805 56.4097 168.208 56.7843C167.61 57.1517 166.817 57.3353 165.83 57.3353Z" fill="#1C1C1C"/>
</svg>
