<svg width="24" height="24" viewBox="0 0 24 24" fill="none" xmlns="http://www.w3.org/2000/svg">
<path d="M19.204 14.2342C19.142 14.2039 16.8198 13.0413 16.4071 12.8904C16.2387 12.8288 16.0582 12.7688 15.8663 12.7688C15.5527 12.7688 15.2893 12.9277 15.0841 13.2398C14.8521 13.5903 14.1499 14.4249 13.933 14.6742C13.9046 14.7071 13.8659 14.7464 13.8428 14.7464C13.822 14.7464 13.4626 14.5959 13.3538 14.5479C10.8628 13.4477 8.97196 10.8021 8.71269 10.356C8.67567 10.2919 8.67411 10.2627 8.6738 10.2627C8.68291 10.2288 8.76667 10.1434 8.8099 10.0993C8.93638 9.97212 9.07341 9.80441 9.206 9.64217C9.26877 9.5653 9.33165 9.48834 9.39339 9.41578C9.58575 9.18825 9.67138 9.0116 9.77066 8.80699L9.82268 8.70068C10.0651 8.21101 9.85805 7.79779 9.79114 7.66436C9.73622 7.55269 8.75571 5.14673 8.65147 4.89396C8.40078 4.284 8.06953 4 7.60921 4C7.5665 4 7.60921 4 7.43009 4.00768C7.21198 4.01703 6.02422 4.17602 5.49906 4.51259C4.94215 4.86956 4 6.00746 4 8.00861C4 9.80966 5.12416 11.5102 5.60682 12.157C5.61881 12.1733 5.64084 12.2064 5.6728 12.2539C7.5212 14.9984 9.82548 17.0324 12.1614 17.9811C14.4102 18.8944 15.4751 19 16.0806 19C16.0807 19 16.0807 19 16.0807 19C16.3351 19 16.5387 18.9797 16.7183 18.9617L16.8323 18.9507C17.6092 18.8807 19.3164 17.9812 19.7048 16.884C20.0107 16.0198 20.0913 15.0756 19.8878 14.7329C19.7484 14.4999 19.5082 14.3827 19.204 14.2342Z" fill="#1C1C1C"/>
</svg>
