<svg width="16" height="15" viewBox="0 0 16 15" fill="none" xmlns="http://www.w3.org/2000/svg">
<path d="M11.5554 8.23618C11.5268 8.22278 10.4573 7.70821 10.2672 7.64138C10.1896 7.61416 10.1065 7.58759 10.0181 7.58759C9.87368 7.58759 9.75236 7.6579 9.65786 7.79603C9.55102 7.95118 9.22759 8.32055 9.12766 8.43089C9.11461 8.44546 9.09679 8.46286 9.08612 8.46286C9.07655 8.46286 8.91102 8.39627 8.86091 8.375C7.71359 7.88808 6.84272 6.71715 6.72331 6.51969C6.70625 6.4913 6.70554 6.47841 6.7054 6.47841C6.70959 6.46338 6.74817 6.42559 6.76808 6.40609C6.82633 6.34978 6.88945 6.27555 6.95051 6.20375C6.97943 6.16973 7.00839 6.13566 7.03682 6.10355C7.12542 6.00284 7.16486 5.92466 7.21059 5.8341L7.23455 5.78705C7.3462 5.57032 7.25084 5.38743 7.22002 5.32838C7.19473 5.27895 6.74312 4.21408 6.69511 4.1022C6.57965 3.83224 6.42708 3.70654 6.21507 3.70654C6.19539 3.70654 6.21507 3.70654 6.13257 3.70994C6.03211 3.71408 5.48505 3.78445 5.24317 3.93341C4.98667 4.09141 4.55273 4.59504 4.55273 5.48074C4.55273 6.27788 5.0705 7.03053 5.2928 7.31678C5.29833 7.324 5.30847 7.33866 5.32319 7.35969C6.17453 8.57441 7.23583 9.47463 8.31171 9.89454C9.34748 10.2988 9.83795 10.3455 10.1168 10.3455C10.1168 10.3455 10.1168 10.3455 10.1168 10.3455C10.234 10.3455 10.3278 10.3365 10.4105 10.3286L10.463 10.3237C10.8209 10.2927 11.6072 9.89459 11.786 9.40897C11.9269 9.02648 11.9641 8.60857 11.8703 8.45691C11.8061 8.35378 11.6955 8.30189 11.5554 8.23618Z" fill="white"/>
<path d="M8.16876 0C4.19544 0 0.962902 3.13449 0.962902 6.98728C0.962902 8.23342 1.30424 9.45321 1.95085 10.5208L0.713212 14.0876C0.690158 14.1542 0.707306 14.2277 0.757653 14.2778C0.793997 14.314 0.843297 14.3336 0.893644 14.3336C0.912936 14.3336 0.93237 14.3307 0.951327 14.3248L4.75813 13.1429C5.79985 13.6867 6.97723 13.9738 8.16881 13.9738C12.1418 13.9738 15.374 10.8397 15.374 6.98728C15.374 3.13449 12.1418 0 8.16876 0ZM8.16876 12.5183C7.04754 12.5183 5.96156 12.202 5.02806 11.6035C4.99667 11.5834 4.96023 11.573 4.92355 11.573C4.90417 11.573 4.88473 11.5759 4.86582 11.5818L2.95885 12.174L3.57446 10.3996C3.59437 10.3422 3.58441 10.2788 3.54773 10.2299C2.83686 9.28088 2.46109 8.15965 2.46109 6.98728C2.46109 3.93707 5.02153 1.45551 8.16872 1.45551C11.3155 1.45551 13.8757 3.93707 13.8757 6.98728C13.8757 10.0371 11.3156 12.5183 8.16876 12.5183Z" fill="white"/>
</svg>
